<svg width="16" height="16" viewBox="0 0 16 16" fill="none" xmlns="http://www.w3.org/2000/svg">
<path fill-rule="evenodd" clip-rule="evenodd" d="M5.11049 2.33339C3.42382 2.33339 2.33382 3.48873 2.33382 5.27739V10.7227C2.33382 12.5114 3.42382 13.6667 5.11049 13.6667H10.8892C12.5765 13.6667 13.6672 12.5114 13.6672 10.7227V5.27739C13.6672 3.48873 12.5765 2.33339 10.8898 2.33339H5.11049ZM10.8888 14.6667H5.11016C2.85083 14.6667 1.3335 13.0814 1.3335 10.7227V5.27737C1.3335 2.91871 2.85083 1.33337 5.11016 1.33337H10.8895C13.1488 1.33337 14.6668 2.91871 14.6668 5.27737V10.7227C14.6668 13.0814 13.1488 14.6667 10.8888 14.6667Z" fill="#20C974"/>
<path fill-rule="evenodd" clip-rule="evenodd" d="M7.20945 10.082C7.08212 10.082 6.95345 10.0334 6.85612 9.93538L5.27345 8.35338C5.07812 8.15805 5.07812 7.84205 5.27345 7.64671C5.46879 7.45138 5.78479 7.45138 5.98012 7.64671L7.20945 8.87471L10.0201 6.06471C10.2155 5.86938 10.5315 5.86938 10.7268 6.06471C10.9221 6.26005 10.9221 6.57605 10.7268 6.77138L7.56279 9.93538C7.46545 10.0334 7.33745 10.082 7.20945 10.082Z" fill="#20C974"/>
</svg>
