<svg width="170" height="220" viewBox="0 0 170 220" fill="none" xmlns="http://www.w3.org/2000/svg">
<circle opacity="0.6" cx="85" cy="85.5801" r="85" fill="white" fill-opacity="0.16"/>
<rect x="50.519" y="82.6079" width="85.5944" height="118.881" rx="9.51049" transform="rotate(2.5 50.519 82.6079)" fill="#323232"/>
<rect x="51.2356" y="83.3899" width="84.0944" height="117.381" rx="8.76049" transform="rotate(2.5 51.2356 83.3899)" stroke="white" stroke-opacity="0.24" stroke-width="1.5"/>
<rect x="2.67537" y="77.2567" width="87.0944" height="120.381" rx="10.2605" transform="rotate(-7.5 2.67537 77.2567)" fill="#454545" stroke="#999999" stroke-width="1.5"/>
<path d="M4.75821 87.3315C4.07263 82.1239 7.73841 77.3466 12.946 76.661L78.9499 67.9714C84.1574 67.2858 88.9348 70.9516 89.6203 76.1592L91.9479 93.8388L7.08578 105.011L4.75821 87.3315Z" fill="white" fill-opacity="0.12"/>
<rect x="106.834" y="70.2954" width="3.56643" height="11.8881" rx="1.78322" transform="rotate(82.5 106.834 70.2954)" fill="#999999"/>
<rect x="74.2649" y="50.6021" width="3.56643" height="11.8881" rx="1.78322" transform="rotate(-7.5 74.2649 50.6021)" fill="#999999"/>
<rect x="95.1609" y="53.8462" width="3.56643" height="11.8881" rx="1.78322" transform="rotate(37.5 95.1609 53.8462)" fill="#999999"/>
<rect x="16.0493" y="117.811" width="68.951" height="4.75524" rx="2.37762" transform="rotate(-7.5 16.0493 117.811)" fill="white" fill-opacity="0.32"/>
<rect x="17.9648" y="126.771" width="68.951" height="4.75524" rx="2.37762" transform="rotate(-7.5 17.9648 126.771)" fill="white" fill-opacity="0.32"/>
<rect x="18.6904" y="135.729" width="68.951" height="4.75524" rx="2.37762" transform="rotate(-7.5 18.6904 135.729)" fill="white" fill-opacity="0.32"/>
</svg>
