<svg width="1102" height="20" viewBox="0 0 1102 20" fill="none" xmlns="http://www.w3.org/2000/svg">
<path d="M852.061 14H853.642V11.0511H855.312C857.328 11.0511 858.41 9.84091 858.41 8.16193C858.41 6.49574 857.341 5.27273 855.334 5.27273H852.061V14ZM853.642 9.75142V6.59375H855.091C856.275 6.59375 856.799 7.23295 856.799 8.16193C856.799 9.09091 856.275 9.75142 855.099 9.75142H853.642ZM860.743 14H862.324V10.804H863.935L865.648 14H867.412L865.525 10.5398C866.552 10.1264 867.093 9.24858 867.093 8.06392C867.093 6.39773 866.019 5.27273 864.016 5.27273H860.743V14ZM862.324 9.49148V6.59375H863.773C864.954 6.59375 865.482 7.13494 865.482 8.06392C865.482 8.9929 864.954 9.49148 863.782 9.49148H862.324ZM877.306 9.63636C877.306 6.81534 875.585 5.15341 873.296 5.15341C871.004 5.15341 869.287 6.81534 869.287 9.63636C869.287 12.4531 871.004 14.1193 873.296 14.1193C875.585 14.1193 877.306 12.4574 877.306 9.63636ZM875.717 9.63636C875.717 11.6222 874.72 12.7003 873.296 12.7003C871.877 12.7003 870.876 11.6222 870.876 9.63636C870.876 7.65057 871.877 6.57244 873.296 6.57244C874.72 6.57244 875.717 7.65057 875.717 9.63636ZM879.761 14H881.342V10.2926H884.968V8.96733H881.342V6.59801H885.352V5.27273H879.761V14ZM889.333 5.27273H887.752V14H889.333V5.27273ZM891.622 6.59801H894.319V14H895.887V6.59801H898.585V5.27273H891.622V6.59801ZM903.432 4.86364H902.081L899.269 15.3125H900.62L903.432 4.86364ZM905.445 14H910.87V12.6747H907.026V5.27273H905.445V14ZM920.66 9.63636C920.66 6.81534 918.939 5.15341 916.65 5.15341C914.358 5.15341 912.64 6.81534 912.64 9.63636C912.64 12.4531 914.358 14.1193 916.65 14.1193C918.939 14.1193 920.66 12.4574 920.66 9.63636ZM919.071 9.63636C919.071 11.6222 918.074 12.7003 916.65 12.7003C915.231 12.7003 914.23 11.6222 914.23 9.63636C914.23 7.65057 915.231 6.57244 916.65 6.57244C918.074 6.57244 919.071 7.65057 919.071 9.63636ZM927.858 7.67188H929.379C929.349 6.19744 928.092 5.15341 926.234 5.15341C924.402 5.15341 923.025 6.18466 923.03 7.72727C923.03 8.98011 923.92 9.70028 925.356 10.071L926.349 10.3267C927.291 10.5653 927.913 10.8594 927.917 11.5369C927.913 12.2827 927.206 12.7812 926.175 12.7812C925.186 12.7812 924.419 12.3381 924.355 11.4219H922.8C922.863 13.1562 924.155 14.1321 926.187 14.1321C928.28 14.1321 929.494 13.0881 929.498 11.5497C929.494 10.0369 928.246 9.34659 926.933 9.03551L926.115 8.83097C925.399 8.66051 924.623 8.35795 924.632 7.62926C924.636 6.97301 925.224 6.49148 926.213 6.49148C927.155 6.49148 927.777 6.9304 927.858 7.67188ZM936.611 7.67188H938.132C938.102 6.19744 936.845 5.15341 934.987 5.15341C933.155 5.15341 931.778 6.18466 931.783 7.72727C931.783 8.98011 932.673 9.70028 934.109 10.071L935.102 10.3267C936.044 10.5653 936.666 10.8594 936.67 11.5369C936.666 12.2827 935.959 12.7812 934.927 12.7812C933.939 12.7812 933.172 12.3381 933.108 11.4219H931.552C931.616 13.1562 932.908 14.1321 934.94 14.1321C937.033 14.1321 938.247 13.0881 938.251 11.5497C938.247 10.0369 936.999 9.34659 935.686 9.03551L934.868 8.83097C934.152 8.66051 933.376 8.35795 933.385 7.62926C933.389 6.97301 933.977 6.49148 934.966 6.49148C935.908 6.49148 936.53 6.9304 936.611 7.67188Z" fill="white" fill-opacity="0.32"/>
<path d="M945.667 11.3335L949 7.3335L952.333 11.3335L945.667 11.3335Z" fill="white" fill-opacity="0.32"/>
<g clip-path="url(#clip0)">
<ellipse cx="461" cy="10" rx="10" ry="10" fill="#151414"/>
<path d="M467.781 8.98752L464.675 4.95214C464.444 4.65136 464.086 4.479 463.693 4.479C463.301 4.479 462.943 4.65136 462.712 4.95214L462.374 5.39105L462.036 4.95214C461.805 4.65136 461.447 4.479 461.055 4.479C460.663 4.479 460.305 4.65136 460.074 4.95214L459.74 5.38571L459.406 4.9519C459.174 4.65136 458.817 4.479 458.424 4.479C458.032 4.479 457.674 4.65136 457.443 4.95214L454.337 8.98752C453.895 9.56189 453.895 10.3334 454.337 10.9077L457.443 14.9434C457.674 15.2439 458.032 15.4165 458.424 15.4165C458.817 15.4165 459.174 15.2441 459.406 14.9434L461.059 12.7957L461.4 13.239H461.4C461.401 13.2404 461.402 13.2419 461.404 13.2436L462.712 14.9434C462.943 15.2439 463.301 15.4165 463.693 15.4165C464.086 15.4165 464.443 15.2441 464.675 14.9434L467.781 10.908C468.223 10.3336 468.223 9.56189 467.781 8.98752ZM460.569 5.29564C460.684 5.14683 460.861 5.06163 461.055 5.06163C461.249 5.06163 461.426 5.14708 461.541 5.29564L461.994 5.88482L461.059 7.09983L460.12 5.87972L460.569 5.29564ZM458.91 14.5996C458.795 14.7484 458.618 14.8336 458.424 14.8336C458.23 14.8336 458.053 14.7482 457.939 14.5996L454.832 10.564C454.548 10.1952 454.548 9.69978 454.832 9.33103L457.939 5.29564C458.053 5.14683 458.23 5.06163 458.424 5.06163C458.618 5.06163 458.795 5.14708 458.91 5.29564L459.359 5.87948L456.967 8.98752C456.525 9.56189 456.525 10.3334 456.968 10.909L457.15 11.1432L457.15 11.143L458.754 13.239C458.958 13.5043 459.261 13.6696 459.599 13.7048L458.91 14.5996ZM460.222 12.8955L460.221 12.8952C460.107 13.044 459.93 13.1292 459.736 13.1292C459.541 13.1292 459.364 13.0438 459.25 12.8957L457.602 10.7405L457.601 10.741L457.463 10.5638C457.179 10.195 457.179 9.69953 457.463 9.33078L459.74 6.37349L460.679 7.5936L459.606 8.98752C459.164 9.56189 459.164 10.3334 459.606 10.9077L460.679 12.3017L460.222 12.8955ZM461.059 8.08737L462.016 9.33127C462.3 9.70002 462.3 10.1955 462.016 10.5642L461.059 11.8081L460.101 10.5642C459.817 10.1955 459.817 9.70002 460.101 9.33127L461.059 8.08737ZM462.512 10.9077C462.954 10.3334 462.954 9.56189 462.512 8.98752L461.439 7.5936L462.374 6.37859L464.647 9.33127C464.931 9.70002 464.931 10.1955 464.646 10.5659L464.282 11.0461L462.867 12.8952C462.753 13.044 462.576 13.1292 462.381 13.1292C462.189 13.1292 462.014 13.0457 461.9 12.8998L461.439 12.3017L462.512 10.9077ZM467.286 10.5642L464.179 14.5996C464.064 14.7484 463.887 14.8336 463.693 14.8336C463.499 14.8336 463.322 14.7482 463.208 14.5996L462.519 13.7046C462.856 13.6691 463.159 13.5038 463.363 13.2382L464.579 11.6494L464.58 11.6503L464.779 11.3872L465.012 11.083L465.01 11.082L465.142 10.9077C465.584 10.3334 465.584 9.56189 465.142 8.98752L462.754 5.88482L463.208 5.29564C463.322 5.14683 463.499 5.06163 463.694 5.06163C463.888 5.06163 464.065 5.14708 464.179 5.29564L467.286 9.33127C467.569 9.70002 467.569 10.1955 467.286 10.5642Z" fill="url(#paint0_linear)"/>
<path opacity="0.6" d="M459.736 13.7124C459.689 13.7124 459.642 13.7097 459.596 13.7049L458.929 14.5773L459.432 14.9143L460.652 13.3252C460.421 13.5718 460.088 13.7124 459.736 13.7124Z" fill="url(#paint1_linear)"/>
<path opacity="0.6" d="M462.378 13.7122C462.425 13.7122 462.472 13.7095 462.518 13.7046L463.185 14.5771L462.682 14.9141L461.469 13.3267C461.699 13.5733 462.026 13.7122 462.378 13.7122Z" fill="url(#paint2_linear)"/>
<path opacity="0.6" d="M460.674 12.2983L461.062 12.8009L460.472 13.5517L460.084 13.0638L460.674 12.2983Z" fill="url(#paint3_linear)"/>
<path d="M459.359 5.87939L459.741 6.37729L458.36 8.17711L457.877 7.81515L459.359 5.87939Z" fill="url(#paint4_linear)"/>
<path d="M460.679 7.59277L461.057 8.09043L460.177 9.24548L459.694 8.88352L460.679 7.59277Z" fill="url(#paint5_linear)"/>
<path d="M461.994 5.88428L462.374 6.37951L461.44 7.59233L461.06 7.09783L461.994 5.88428Z" fill="url(#paint6_linear)"/>
</g>
<path d="M475.854 14H477.414L479.165 7.87642H479.233L480.98 14H482.54L485.003 5.27273H483.303L481.73 11.6903H481.654L479.97 5.27273H478.424L476.745 11.6861H476.664L475.091 5.27273H473.391L475.854 14ZM487.36 14L488.08 11.848H491.361L492.086 14H493.773L490.696 5.27273H488.745L485.672 14H487.36ZM488.506 10.5781L489.686 7.0625H489.755L490.935 10.5781H488.506ZM495.883 14H501.307V12.6747H497.464V5.27273H495.883V14ZM503.639 14H509.064V12.6747H505.22V5.27273H503.639V14ZM511.396 14H517.107V12.6747H512.977V10.2926H516.778V8.96733H512.977V6.59801H517.072V5.27273H511.396V14ZM519.262 6.59801H521.959V14H523.528V6.59801H526.225V5.27273H519.262V6.59801ZM532.464 14H535.997C537.995 14 538.975 12.9815 538.975 11.6222C538.975 10.3011 538.038 9.52557 537.109 9.47869V9.39347C537.961 9.19318 538.634 8.59659 538.634 7.53551C538.634 6.2358 537.697 5.27273 535.805 5.27273H532.464V14ZM534.045 12.679V10.1222H535.788C536.764 10.1222 537.369 10.7188 537.369 11.4986C537.369 12.1932 536.891 12.679 535.745 12.679H534.045ZM534.045 8.98438V6.5767H535.643C536.572 6.5767 537.053 7.06676 537.053 7.74006C537.053 8.5071 536.431 8.98438 535.609 8.98438H534.045ZM542.431 14L543.151 11.848H546.433L547.157 14H548.845L545.768 5.27273H543.816L540.744 14H542.431ZM543.578 10.5781L544.758 7.0625H544.826L546.007 10.5781H543.578ZM550.954 14H556.379V12.6747H552.535V5.27273H550.954V14ZM560.16 14L560.88 11.848H564.161L564.886 14H566.573L563.497 5.27273H561.545L558.472 14H560.16ZM561.306 10.5781L562.487 7.0625H562.555L563.735 10.5781H561.306ZM575.855 5.27273H574.282V11.2216H574.205L570.098 5.27273H568.683V14H570.264V8.0554H570.336L574.448 14H575.855V5.27273ZM586.007 8.21733C585.739 6.27841 584.248 5.15341 582.313 5.15341C580.033 5.15341 578.316 6.81534 578.316 9.63636C578.316 12.4531 580.012 14.1193 582.313 14.1193C584.388 14.1193 585.765 12.777 586.007 11.1108L584.414 11.1023C584.213 12.125 583.378 12.7003 582.334 12.7003C580.919 12.7003 579.905 11.6392 579.905 9.63636C579.905 7.66761 580.911 6.57244 582.338 6.57244C583.399 6.57244 584.23 7.1733 584.414 8.21733H586.007ZM588.415 14H594.125V12.6747H589.996V10.2926H593.797V8.96733H589.996V6.59801H594.091V5.27273H588.415V14Z" fill="white" fill-opacity="0.32"/>
<path d="M601.667 11.3335L605 7.3335L608.333 11.3335L601.667 11.3335Z" fill="white" fill-opacity="0.32"/>
<path d="M668.931 6.59801H671.629V14H673.197V6.59801H675.894V5.27273H668.931V6.59801ZM685.62 9.63636C685.62 6.81534 683.898 5.15341 681.61 5.15341C679.317 5.15341 677.6 6.81534 677.6 9.63636C677.6 12.4531 679.317 14.1193 681.61 14.1193C683.898 14.1193 685.62 12.4574 685.62 9.63636ZM684.03 9.63636C684.03 11.6222 683.033 12.7003 681.61 12.7003C680.191 12.7003 679.189 11.6222 679.189 9.63636C679.189 7.65057 680.191 6.57244 681.61 6.57244C683.033 6.57244 684.03 7.65057 684.03 9.63636ZM688.075 14H689.656V11.4006L690.623 10.2585L693.227 14H695.127L691.722 9.18892L695.097 5.27273H693.167L689.762 9.28267H689.656V5.27273H688.075V14ZM697.156 14H702.866V12.6747H698.737V10.2926H702.538V8.96733H698.737V6.59801H702.832V5.27273H697.156V14ZM712.577 5.27273H711.004V11.2216H710.927L706.819 5.27273H705.405V14H706.986V8.0554H707.058L711.17 14H712.577V5.27273ZM720.002 7.67188H721.523C721.494 6.19744 720.237 5.15341 718.379 5.15341C716.546 5.15341 715.17 6.18466 715.174 7.72727C715.174 8.98011 716.065 9.70028 717.501 10.071L718.494 10.3267C719.435 10.5653 720.058 10.8594 720.062 11.5369C720.058 12.2827 719.35 12.7812 718.319 12.7812C717.33 12.7812 716.563 12.3381 716.499 11.4219H714.944C715.008 13.1562 716.299 14.1321 718.332 14.1321C720.424 14.1321 721.638 13.0881 721.643 11.5497C721.638 10.0369 720.39 9.34659 719.077 9.03551L718.259 8.83097C717.543 8.66051 716.768 8.35795 716.776 7.62926C716.781 6.97301 717.369 6.49148 718.357 6.49148C719.299 6.49148 719.921 6.9304 720.002 7.67188ZM732.692 7.67188H734.213C734.183 6.19744 732.926 5.15341 731.068 5.15341C729.236 5.15341 727.859 6.18466 727.864 7.72727C727.864 8.98011 728.754 9.70028 730.19 10.071L731.183 10.3267C732.125 10.5653 732.747 10.8594 732.751 11.5369C732.747 12.2827 732.04 12.7812 731.008 12.7812C730.02 12.7812 729.253 12.3381 729.189 11.4219H727.633C727.697 13.1562 728.989 14.1321 731.021 14.1321C733.114 14.1321 734.328 13.0881 734.332 11.5497C734.328 10.0369 733.079 9.34659 731.767 9.03551L730.949 8.83097C730.233 8.66051 729.457 8.35795 729.466 7.62926C729.47 6.97301 730.058 6.49148 731.047 6.49148C731.989 6.49148 732.611 6.9304 732.692 7.67188ZM744.5 9.63636C744.5 6.81534 742.778 5.15341 740.49 5.15341C738.197 5.15341 736.48 6.81534 736.48 9.63636C736.48 12.4531 738.197 14.1193 740.49 14.1193C742.778 14.1193 744.5 12.4574 744.5 9.63636ZM742.911 9.63636C742.911 11.6222 741.913 12.7003 740.49 12.7003C739.071 12.7003 738.07 11.6222 738.07 9.63636C738.07 7.65057 739.071 6.57244 740.49 6.57244C741.913 6.57244 742.911 7.65057 742.911 9.63636ZM746.955 14H752.379V12.6747H748.536V5.27273H746.955V14ZM757.669 14C760.328 14 761.905 12.3551 761.905 9.62784C761.905 6.90909 760.328 5.27273 757.729 5.27273H754.712V14H757.669ZM756.293 12.6321V6.64062H757.639C759.412 6.64062 760.337 7.62926 760.337 9.62784C760.337 11.6349 759.412 12.6321 757.592 12.6321H756.293Z" fill="white" fill-opacity="0.32"/>
<path d="M769.667 11.3335L773 7.3335L776.333 11.3335L769.667 11.3335Z" fill="white" fill-opacity="0.32"/>
<g clip-path="url(#clip1)">
<ellipse cx="292" cy="10" rx="10" ry="10" fill="#151414"/>
<path d="M298.781 8.98752L295.675 4.95214C295.444 4.65136 295.086 4.479 294.693 4.479C294.301 4.479 293.943 4.65136 293.712 4.95214L293.374 5.39105L293.036 4.95214C292.805 4.65136 292.447 4.479 292.055 4.479C291.663 4.479 291.305 4.65136 291.074 4.95214L290.74 5.38571L290.406 4.9519C290.174 4.65136 289.817 4.479 289.424 4.479C289.032 4.479 288.674 4.65136 288.443 4.95214L285.337 8.98752C284.895 9.56189 284.895 10.3334 285.337 10.9077L288.443 14.9434C288.674 15.2439 289.032 15.4165 289.424 15.4165C289.817 15.4165 290.174 15.2441 290.406 14.9434L292.059 12.7957L292.4 13.239H292.4C292.401 13.2404 292.402 13.2419 292.404 13.2436L293.712 14.9434C293.943 15.2439 294.301 15.4165 294.693 15.4165C295.086 15.4165 295.443 15.2441 295.675 14.9434L298.781 10.908C299.223 10.3336 299.223 9.56189 298.781 8.98752ZM291.569 5.29564C291.684 5.14683 291.861 5.06163 292.055 5.06163C292.249 5.06163 292.426 5.14708 292.541 5.29564L292.994 5.88482L292.059 7.09983L291.12 5.87972L291.569 5.29564ZM289.91 14.5996C289.795 14.7484 289.618 14.8336 289.424 14.8336C289.23 14.8336 289.053 14.7482 288.939 14.5996L285.832 10.564C285.548 10.1952 285.548 9.69978 285.832 9.33103L288.939 5.29564C289.053 5.14683 289.23 5.06163 289.424 5.06163C289.618 5.06163 289.795 5.14708 289.91 5.29564L290.359 5.87948L287.967 8.98752C287.525 9.56189 287.525 10.3334 287.968 10.909L288.15 11.1432L288.15 11.143L289.754 13.239C289.958 13.5043 290.261 13.6696 290.599 13.7048L289.91 14.5996ZM291.222 12.8955L291.221 12.8952C291.107 13.044 290.93 13.1292 290.736 13.1292C290.541 13.1292 290.364 13.0438 290.25 12.8957L288.602 10.7405L288.601 10.741L288.463 10.5638C288.179 10.195 288.179 9.69953 288.463 9.33078L290.74 6.37349L291.679 7.5936L290.606 8.98752C290.164 9.56189 290.164 10.3334 290.606 10.9077L291.679 12.3017L291.222 12.8955ZM292.059 8.08737L293.016 9.33127C293.3 9.70002 293.3 10.1955 293.016 10.5642L292.059 11.8081L291.101 10.5642C290.817 10.1955 290.817 9.70002 291.101 9.33127L292.059 8.08737ZM293.512 10.9077C293.954 10.3334 293.954 9.56189 293.512 8.98752L292.439 7.5936L293.374 6.37859L295.647 9.33127C295.931 9.70002 295.931 10.1955 295.646 10.5659L295.282 11.0461L293.867 12.8952C293.753 13.044 293.576 13.1292 293.381 13.1292C293.189 13.1292 293.014 13.0457 292.9 12.8998L292.439 12.3017L293.512 10.9077ZM298.286 10.5642L295.179 14.5996C295.064 14.7484 294.887 14.8336 294.693 14.8336C294.499 14.8336 294.322 14.7482 294.208 14.5996L293.519 13.7046C293.856 13.6691 294.159 13.5038 294.363 13.2382L295.579 11.6494L295.58 11.6503L295.779 11.3872L296.012 11.083L296.01 11.082L296.142 10.9077C296.584 10.3334 296.584 9.56189 296.142 8.98752L293.754 5.88482L294.208 5.29564C294.322 5.14683 294.499 5.06163 294.694 5.06163C294.888 5.06163 295.065 5.14708 295.179 5.29564L298.286 9.33127C298.569 9.70002 298.569 10.1955 298.286 10.5642Z" fill="url(#paint7_linear)"/>
<path opacity="0.6" d="M290.736 13.7124C290.689 13.7124 290.642 13.7097 290.596 13.7049L289.929 14.5773L290.432 14.9143L291.652 13.3252C291.421 13.5718 291.088 13.7124 290.736 13.7124Z" fill="url(#paint8_linear)"/>
<path opacity="0.6" d="M293.378 13.7122C293.425 13.7122 293.472 13.7095 293.518 13.7046L294.185 14.5771L293.682 14.9141L292.469 13.3267C292.699 13.5733 293.026 13.7122 293.378 13.7122Z" fill="url(#paint9_linear)"/>
<path opacity="0.6" d="M291.674 12.2983L292.062 12.8009L291.472 13.5517L291.084 13.0638L291.674 12.2983Z" fill="url(#paint10_linear)"/>
<path d="M290.359 5.87939L290.741 6.37729L289.36 8.17711L288.877 7.81515L290.359 5.87939Z" fill="url(#paint11_linear)"/>
<path d="M291.679 7.59277L292.057 8.09043L291.177 9.24548L290.694 8.88352L291.679 7.59277Z" fill="url(#paint12_linear)"/>
<path d="M292.994 5.88428L293.374 6.37951L292.44 7.59233L292.06 7.09783L292.994 5.88428Z" fill="url(#paint13_linear)"/>
</g>
<path d="M306.352 14L307.073 11.848H310.354L311.078 14H312.766L309.689 5.27273H307.737L304.665 14H306.352ZM307.499 10.5781L308.679 7.0625H308.747L309.928 10.5781H307.499ZM314.875 14H320.3V12.6747H316.456V5.27273H314.875V14ZM322.632 14H328.057V12.6747H324.213V5.27273H322.632V14ZM337.848 9.63636C337.848 6.81534 336.126 5.15341 333.838 5.15341C331.545 5.15341 329.828 6.81534 329.828 9.63636C329.828 12.4531 331.545 14.1193 333.838 14.1193C336.126 14.1193 337.848 12.4574 337.848 9.63636ZM336.258 9.63636C336.258 11.6222 335.261 12.7003 333.838 12.7003C332.419 12.7003 331.417 11.6222 331.417 9.63636C331.417 7.65057 332.419 6.57244 333.838 6.57244C335.261 6.57244 336.258 7.65057 336.258 9.63636ZM347.772 8.21733C347.504 6.27841 346.012 5.15341 344.078 5.15341C341.798 5.15341 340.081 6.81534 340.081 9.63636C340.081 12.4531 341.777 14.1193 344.078 14.1193C346.153 14.1193 347.529 12.777 347.772 11.1108L346.179 11.1023C345.978 12.125 345.143 12.7003 344.099 12.7003C342.684 12.7003 341.67 11.6392 341.67 9.63636C341.67 7.66761 342.676 6.57244 344.103 6.57244C345.164 6.57244 345.995 7.1733 346.179 8.21733H347.772ZM351.195 14L351.916 11.848H355.197L355.921 14H357.609L354.532 5.27273H352.58L349.508 14H351.195ZM352.342 10.5781L353.522 7.0625H353.59L354.771 10.5781H352.342ZM358.28 6.59801H360.978V14H362.546V6.59801H365.243V5.27273H358.28V6.59801ZM367.545 14H373.256V12.6747H369.126V10.2926H372.928V8.96733H369.126V6.59801H373.222V5.27273H367.545V14ZM378.752 14C381.411 14 382.988 12.3551 382.988 9.62784C382.988 6.90909 381.411 5.27273 378.812 5.27273H375.795V14H378.752ZM377.376 12.6321V6.64062H378.722C380.495 6.64062 381.42 7.62926 381.42 9.62784C381.42 11.6349 380.495 12.6321 378.675 12.6321H377.376Z" fill="white" fill-opacity="0.32"/>
<path d="M390.667 11.3335L394 7.3335L397.333 11.3335L390.667 11.3335Z" fill="white" fill-opacity="0.88"/>
<path d="M80.4418 5.27273H78.8608V14H80.4418V5.27273ZM90.2856 5.27273H88.7132V11.2216H88.6365L84.5285 5.27273H83.1138V14H84.6947V8.0554H84.7672L88.8794 14H90.2856V5.27273ZM94.1359 5.27273H92.4015L95.474 14H97.4257L100.502 5.27273H98.7638L96.4967 12.142H96.4072L94.1359 5.27273ZM102.612 14H108.322V12.6747H104.193V10.2926H107.994V8.96733H104.193V6.59801H108.288V5.27273H102.612V14ZM115.604 7.67188H117.125C117.095 6.19744 115.838 5.15341 113.98 5.15341C112.148 5.15341 110.771 6.18466 110.776 7.72727C110.776 8.98011 111.666 9.70028 113.102 10.071L114.095 10.3267C115.037 10.5653 115.659 10.8594 115.664 11.5369C115.659 12.2827 114.952 12.7812 113.921 12.7812C112.932 12.7812 112.165 12.3381 112.101 11.4219H110.546C110.61 13.1562 111.901 14.1321 113.933 14.1321C116.026 14.1321 117.24 13.0881 117.244 11.5497C117.24 10.0369 115.992 9.34659 114.679 9.03551L113.861 8.83097C113.145 8.66051 112.369 8.35795 112.378 7.62926C112.382 6.97301 112.97 6.49148 113.959 6.49148C114.901 6.49148 115.523 6.9304 115.604 7.67188ZM119.23 6.59801H121.928V14H123.496V6.59801H126.193V5.27273H119.23V6.59801ZM135.919 9.63636C135.919 6.81534 134.197 5.15341 131.909 5.15341C129.617 5.15341 127.899 6.81534 127.899 9.63636C127.899 12.4531 129.617 14.1193 131.909 14.1193C134.197 14.1193 135.919 12.4574 135.919 9.63636ZM134.33 9.63636C134.33 11.6222 133.332 12.7003 131.909 12.7003C130.49 12.7003 129.489 11.6222 129.489 9.63636C129.489 7.65057 130.49 6.57244 131.909 6.57244C133.332 6.57244 134.33 7.65057 134.33 9.63636ZM138.374 14H139.955V10.804H141.566L143.279 14H145.043L143.155 10.5398C144.182 10.1264 144.723 9.24858 144.723 8.06392C144.723 6.39773 143.649 5.27273 141.646 5.27273H138.374V14ZM139.955 9.49148V6.59375H141.404C142.584 6.59375 143.112 7.13494 143.112 8.06392C143.112 8.9929 142.584 9.49148 141.412 9.49148H139.955ZM151.881 7.67188H153.403C153.373 6.19744 152.116 5.15341 150.258 5.15341C148.425 5.15341 147.049 6.18466 147.053 7.72727C147.053 8.98011 147.944 9.70028 149.38 10.071L150.373 10.3267C151.315 10.5653 151.937 10.8594 151.941 11.5369C151.937 12.2827 151.229 12.7812 150.198 12.7812C149.209 12.7812 148.442 12.3381 148.379 11.4219H146.823C146.887 13.1562 148.178 14.1321 150.211 14.1321C152.303 14.1321 153.518 13.0881 153.522 11.5497C153.518 10.0369 152.269 9.34659 150.957 9.03551L150.138 8.83097C149.423 8.66051 148.647 8.35795 148.655 7.62926C148.66 6.97301 149.248 6.49148 150.236 6.49148C151.178 6.49148 151.8 6.9304 151.881 7.67188Z" fill="white" fill-opacity="0.32"/>
<path d="M0.860795 14H2.44176V10.804H4.05256L5.76562 14H7.52983L5.64205 10.5398C6.66903 10.1264 7.21023 9.24858 7.21023 8.06392C7.21023 6.39773 6.13636 5.27273 4.13352 5.27273H0.860795V14ZM2.44176 9.49148V6.59375H3.89062C5.07102 6.59375 5.59943 7.13494 5.59943 8.06392C5.59943 8.9929 5.07102 9.49148 3.89915 9.49148H2.44176ZM10.7462 14L11.4664 11.848H14.7476L15.4721 14H17.1596L14.0829 5.27273H12.1312L9.05872 14H10.7462ZM11.8925 10.5781L13.0729 7.0625H13.1411L14.3215 10.5781H11.8925ZM26.441 5.27273H24.8685V11.2216H24.7918L20.6838 5.27273H19.2691V14H20.85V8.0554H20.9225L25.0347 14H26.441V5.27273ZM29.1236 14H30.7046V11.4006L31.6719 10.2585L34.2756 14H36.1762L32.7713 9.18892L36.1463 5.27273H34.2159L30.8111 9.28267H30.7046V5.27273H29.1236V14ZM42.9007 7.67188H44.422C44.3922 6.19744 43.1351 5.15341 41.2771 5.15341C39.4448 5.15341 38.0683 6.18466 38.0726 7.72727C38.0726 8.98011 38.9632 9.70028 40.3993 10.071L41.3922 10.3267C42.334 10.5653 42.9561 10.8594 42.9604 11.5369C42.9561 12.2827 42.2487 12.7812 41.2175 12.7812C40.2288 12.7812 39.4618 12.3381 39.3979 11.4219H37.8425C37.9064 13.1562 39.1976 14.1321 41.2303 14.1321C43.3226 14.1321 44.5371 13.0881 44.5413 11.5497C44.5371 10.0369 43.2885 9.34659 41.976 9.03551L41.1578 8.83097C40.4419 8.66051 39.6663 8.35795 39.6749 7.62926C39.6791 6.97301 40.2672 6.49148 41.2558 6.49148C42.1976 6.49148 42.8198 6.9304 42.9007 7.67188Z" fill="white" fill-opacity="0.32"/>
<path d="M52.6666 11.3335L55.9999 7.3335L59.3333 11.3335L52.6666 11.3335Z" fill="white" fill-opacity="0.32"/>
<path d="M1035.54 10.0635C1035.28 8.1246 1033.78 6.9996 1031.85 6.9996C1029.57 6.9996 1027.85 8.66153 1027.85 11.4826C1027.85 14.2993 1029.55 15.9655 1031.85 15.9655C1033.92 15.9655 1035.3 14.6232 1035.54 12.957L1033.95 12.9485C1033.75 13.9712 1032.91 14.5465 1031.87 14.5465C1030.46 14.5465 1029.44 13.4854 1029.44 11.4826C1029.44 9.5138 1030.45 8.41863 1031.88 8.41863C1032.94 8.41863 1033.77 9.01949 1033.95 10.0635H1035.54ZM1037.95 15.8462H1039.53V12.1388H1043.58V15.8462H1045.16V7.11892H1043.58V10.8135H1039.53V7.11892H1037.95V15.8462ZM1048.96 15.8462L1049.68 13.6942H1052.96L1053.69 15.8462H1055.38L1052.3 7.11892H1050.35L1047.27 15.8462H1048.96ZM1050.11 12.4243L1051.29 8.90869H1051.36L1052.54 12.4243H1050.11ZM1064.66 7.11892H1063.08V13.0678H1063.01L1058.9 7.11892H1057.49V15.8462H1059.07V9.90159H1059.14L1063.25 15.8462H1064.66V7.11892ZM1073.19 9.90585H1074.8C1074.53 8.19278 1073.05 6.9996 1071.12 6.9996C1068.83 6.9996 1067.12 8.67858 1067.12 11.4911C1067.12 14.2524 1068.75 15.9655 1071.16 15.9655C1073.32 15.9655 1074.87 14.5763 1074.87 12.3263V11.278H1071.33V12.5138H1073.34C1073.31 13.7581 1072.48 14.5465 1071.17 14.5465C1069.71 14.5465 1068.71 13.4513 1068.71 11.474C1068.71 9.50954 1069.73 8.41863 1071.14 8.41863C1072.19 8.41863 1072.91 8.98113 1073.19 9.90585ZM1077.36 15.8462H1083.07V14.5209H1078.94V12.1388H1082.74V10.8135H1078.94V8.4442H1083.03V7.11892H1077.36V15.8462Z" fill="white" fill-opacity="0.32"/>
<path d="M1090.67 11.3335L1094 7.3335L1097.33 11.3335L1090.67 11.3335Z" fill="white" fill-opacity="0.32"/>
<defs>
<linearGradient id="paint0_linear" x1="456.251" y1="14.0805" x2="462.633" y2="5.02093" gradientUnits="userSpaceOnUse">
<stop stop-color="#FF8506"/>
<stop offset="0.5805" stop-color="#FD3947"/>
<stop offset="1" stop-color="#FB0078"/>
</linearGradient>
<linearGradient id="paint1_linear" x1="460.265" y1="13.3131" x2="459.297" y2="14.7573" gradientUnits="userSpaceOnUse">
<stop stop-color="#78005B"/>
<stop offset="0.3483" stop-color="#7A025A" stop-opacity="0.6517"/>
<stop offset="0.51" stop-color="#820955" stop-opacity="0.49"/>
<stop offset="0.6332" stop-color="#8E154E" stop-opacity="0.3668"/>
<stop offset="0.7369" stop-color="#A12643" stop-opacity="0.2631"/>
<stop offset="0.8283" stop-color="#B83C36" stop-opacity="0.1717"/>
<stop offset="0.9111" stop-color="#D65725" stop-opacity="0.0889"/>
<stop offset="0.9857" stop-color="#F87711" stop-opacity="0.0143"/>
<stop offset="1" stop-color="#FF7E0D" stop-opacity="0"/>
</linearGradient>
<linearGradient id="paint2_linear" x1="462.805" y1="14.6054" x2="461.894" y2="13.2249" gradientUnits="userSpaceOnUse">
<stop stop-color="#FF7E0D" stop-opacity="0"/>
<stop offset="0.00928743" stop-color="#F97811" stop-opacity="0.0127"/>
<stop offset="0.0651" stop-color="#D65825" stop-opacity="0.0888"/>
<stop offset="0.1269" stop-color="#B93D36" stop-opacity="0.1729"/>
<stop offset="0.1949" stop-color="#A12643" stop-opacity="0.2657"/>
<stop offset="0.272" stop-color="#8F154E" stop-opacity="0.3707"/>
<stop offset="0.3632" stop-color="#820955" stop-opacity="0.495"/>
<stop offset="0.4822" stop-color="#7A025A" stop-opacity="0.6573"/>
<stop offset="0.7336" stop-color="#78005B"/>
</linearGradient>
<linearGradient id="paint3_linear" x1="460.3" y1="13.3059" x2="461.036" y2="12.1896" gradientUnits="userSpaceOnUse">
<stop stop-color="#FF7E0D" stop-opacity="0"/>
<stop offset="0.0133" stop-color="#F97910" stop-opacity="0.0192"/>
<stop offset="0.1144" stop-color="#D25427" stop-opacity="0.1659"/>
<stop offset="0.219" stop-color="#B1363A" stop-opacity="0.3175"/>
<stop offset="0.3263" stop-color="#981E48" stop-opacity="0.4731"/>
<stop offset="0.4375" stop-color="#860D53" stop-opacity="0.6344"/>
<stop offset="0.5551" stop-color="#7B0359" stop-opacity="0.8048"/>
<stop offset="0.6897" stop-color="#78005B"/>
</linearGradient>
<linearGradient id="paint4_linear" x1="457.954" y1="7.88788" x2="459.623" y2="6.12943" gradientUnits="userSpaceOnUse">
<stop stop-color="#FF4630" stop-opacity="0"/>
<stop offset="0.5722" stop-color="#B31F48" stop-opacity="0.5722"/>
<stop offset="1" stop-color="#78005B"/>
</linearGradient>
<linearGradient id="paint5_linear" x1="459.816" y1="8.99981" x2="460.928" y2="7.82852" gradientUnits="userSpaceOnUse">
<stop stop-color="#FF4630" stop-opacity="0"/>
<stop offset="0.5722" stop-color="#B31F48" stop-opacity="0.5722"/>
<stop offset="1" stop-color="#78005B"/>
</linearGradient>
<linearGradient id="paint6_linear" x1="461.129" y1="7.29678" x2="462.244" y2="6.12163" gradientUnits="userSpaceOnUse">
<stop stop-color="#FF4630" stop-opacity="0"/>
<stop offset="0.5722" stop-color="#B31F48" stop-opacity="0.5722"/>
<stop offset="1" stop-color="#78005B"/>
</linearGradient>
<linearGradient id="paint7_linear" x1="287.251" y1="14.0805" x2="293.633" y2="5.02093" gradientUnits="userSpaceOnUse">
<stop stop-color="#FF8506"/>
<stop offset="0.5805" stop-color="#FD3947"/>
<stop offset="1" stop-color="#FB0078"/>
</linearGradient>
<linearGradient id="paint8_linear" x1="291.265" y1="13.3131" x2="290.297" y2="14.7573" gradientUnits="userSpaceOnUse">
<stop stop-color="#78005B"/>
<stop offset="0.3483" stop-color="#7A025A" stop-opacity="0.6517"/>
<stop offset="0.51" stop-color="#820955" stop-opacity="0.49"/>
<stop offset="0.6332" stop-color="#8E154E" stop-opacity="0.3668"/>
<stop offset="0.7369" stop-color="#A12643" stop-opacity="0.2631"/>
<stop offset="0.8283" stop-color="#B83C36" stop-opacity="0.1717"/>
<stop offset="0.9111" stop-color="#D65725" stop-opacity="0.0889"/>
<stop offset="0.9857" stop-color="#F87711" stop-opacity="0.0143"/>
<stop offset="1" stop-color="#FF7E0D" stop-opacity="0"/>
</linearGradient>
<linearGradient id="paint9_linear" x1="293.805" y1="14.6054" x2="292.894" y2="13.2249" gradientUnits="userSpaceOnUse">
<stop stop-color="#FF7E0D" stop-opacity="0"/>
<stop offset="0.00928743" stop-color="#F97811" stop-opacity="0.0127"/>
<stop offset="0.0651" stop-color="#D65825" stop-opacity="0.0888"/>
<stop offset="0.1269" stop-color="#B93D36" stop-opacity="0.1729"/>
<stop offset="0.1949" stop-color="#A12643" stop-opacity="0.2657"/>
<stop offset="0.272" stop-color="#8F154E" stop-opacity="0.3707"/>
<stop offset="0.3632" stop-color="#820955" stop-opacity="0.495"/>
<stop offset="0.4822" stop-color="#7A025A" stop-opacity="0.6573"/>
<stop offset="0.7336" stop-color="#78005B"/>
</linearGradient>
<linearGradient id="paint10_linear" x1="291.3" y1="13.3059" x2="292.036" y2="12.1896" gradientUnits="userSpaceOnUse">
<stop stop-color="#FF7E0D" stop-opacity="0"/>
<stop offset="0.0133" stop-color="#F97910" stop-opacity="0.0192"/>
<stop offset="0.1144" stop-color="#D25427" stop-opacity="0.1659"/>
<stop offset="0.219" stop-color="#B1363A" stop-opacity="0.3175"/>
<stop offset="0.3263" stop-color="#981E48" stop-opacity="0.4731"/>
<stop offset="0.4375" stop-color="#860D53" stop-opacity="0.6344"/>
<stop offset="0.5551" stop-color="#7B0359" stop-opacity="0.8048"/>
<stop offset="0.6897" stop-color="#78005B"/>
</linearGradient>
<linearGradient id="paint11_linear" x1="288.954" y1="7.88788" x2="290.623" y2="6.12943" gradientUnits="userSpaceOnUse">
<stop stop-color="#FF4630" stop-opacity="0"/>
<stop offset="0.5722" stop-color="#B31F48" stop-opacity="0.5722"/>
<stop offset="1" stop-color="#78005B"/>
</linearGradient>
<linearGradient id="paint12_linear" x1="290.816" y1="8.99981" x2="291.928" y2="7.82852" gradientUnits="userSpaceOnUse">
<stop stop-color="#FF4630" stop-opacity="0"/>
<stop offset="0.5722" stop-color="#B31F48" stop-opacity="0.5722"/>
<stop offset="1" stop-color="#78005B"/>
</linearGradient>
<linearGradient id="paint13_linear" x1="292.129" y1="7.29678" x2="293.244" y2="6.12163" gradientUnits="userSpaceOnUse">
<stop stop-color="#FF4630" stop-opacity="0"/>
<stop offset="0.5722" stop-color="#B31F48" stop-opacity="0.5722"/>
<stop offset="1" stop-color="#78005B"/>
</linearGradient>
<clipPath id="clip0">
<rect width="20" height="20" fill="white" transform="translate(451)"/>
</clipPath>
<clipPath id="clip1">
<rect width="20" height="20" fill="white" transform="translate(282)"/>
</clipPath>
</defs>
</svg>
