<svg width="1164" height="20" viewBox="0 0 1164 20" fill="none" xmlns="http://www.w3.org/2000/svg">
<path d="M1.35227 15H2.28196V11.1072H4.65341C6.80611 11.1072 7.91974 9.74006 7.91974 7.96023C7.91974 6.1804 6.80611 4.81818 4.63849 4.81818H1.35227V15ZM2.28196 10.272V5.65341H4.61364C6.22443 5.65341 7.00497 6.62287 7.00497 7.96023C7.00497 9.29261 6.22443 10.272 4.62855 10.272H2.28196ZM12.0511 15.174C13.3239 15.174 14.0994 14.468 14.4176 13.7919H14.4723V15H15.3572V9.81463C15.3572 7.76633 13.8161 7.25923 12.6477 7.25923C11.4794 7.25923 10.2763 7.72159 9.75923 8.96946L10.5994 9.27273C10.8778 8.61648 11.5689 8.05469 12.6726 8.05469C13.831 8.05469 14.4723 8.69105 14.4723 9.73509V9.91406C14.4723 10.4908 13.7564 10.5007 12.4737 10.6598C10.7486 10.8736 9.54048 11.3558 9.54048 12.8672C9.54048 14.3388 10.6641 15.174 12.0511 15.174ZM12.1705 14.3636C11.1712 14.3636 10.4254 13.8317 10.4254 12.907C10.4254 11.9822 11.1811 11.5945 12.4737 11.4354C13.1001 11.3608 14.2138 11.2216 14.4723 10.968V12.0717C14.4723 13.3246 13.5824 14.3636 12.1705 14.3636ZM20.6246 18.0227C22.4343 18.0227 23.7766 17.1378 23.7766 15.1989V7.36364H22.9116V8.82031H22.8221C22.5089 8.13423 21.8775 7.25923 20.4755 7.25923C18.5863 7.25923 17.3185 8.8402 17.3185 11.1619C17.3185 13.5036 18.631 14.9205 20.4606 14.9205C21.8327 14.9205 22.5039 14.125 22.8072 13.424H22.8867V15.1442C22.8867 16.5661 21.9769 17.2273 20.6246 17.2273C19.3171 17.2273 18.6907 16.5959 18.3675 16.0142L17.6417 16.4915C18.0891 17.3665 19.0636 18.0227 20.6246 18.0227ZM20.565 14.1101C19.0487 14.1101 18.2085 12.897 18.2085 11.147C18.2085 9.42685 19.0337 8.06463 20.565 8.06463C22.0614 8.06463 22.9016 9.35724 22.9016 11.147C22.9016 12.9915 22.0366 14.1101 20.565 14.1101ZM29.2069 15.1591C30.7381 15.1591 31.7672 14.3288 32.1152 13.3693L31.275 13.0959C30.9817 13.782 30.2907 14.3487 29.2069 14.3487C27.6458 14.3487 26.6564 13.2102 26.6167 11.4453H32.3042V11.0078C32.3042 8.45739 30.7282 7.25923 29.0726 7.25923C27.0939 7.25923 25.7267 8.91477 25.7267 11.2266C25.7267 13.5433 27.0691 15.1591 29.2069 15.1591ZM26.6216 10.6648C26.7161 9.2429 27.6756 8.06463 29.0726 8.06463C30.4398 8.06463 31.3993 9.19318 31.3993 10.6648H26.6216ZM41.299 4.81818H40.3295L37.9233 6.41406V7.37855L40.3097 5.79261H40.3693V15H41.299V4.81818ZM51.3317 15.1591C53.3104 15.1591 54.6925 13.5433 54.6925 11.2166C54.6925 8.875 53.3104 7.25923 51.3317 7.25923C49.353 7.25923 47.9709 8.875 47.9709 11.2166C47.9709 13.5433 49.353 15.1591 51.3317 15.1591ZM51.3317 14.3487C49.7457 14.3487 48.8608 12.9268 48.8608 11.2166C48.8608 9.50639 49.7457 8.06463 51.3317 8.06463C52.9176 8.06463 53.8026 9.50639 53.8026 11.2166C53.8026 12.9268 52.9176 14.3487 51.3317 14.3487ZM59.7772 7.36364H58.0868V6.42898C58.0868 5.62855 58.5194 5.18111 59.29 5.18111C59.5833 5.18111 59.7623 5.24574 59.8965 5.29048L60.155 4.51491C59.976 4.44034 59.6777 4.34588 59.2104 4.34588C58.1713 4.34588 57.1969 5.01207 57.1969 6.24503V7.36364H56.0236V8.13423H57.1969V15H58.0819L58.0868 8.13423H59.7772V7.36364ZM68.5881 4.81818H67.6186L65.2124 6.41406V7.37855L67.5987 5.79261H67.6584V15H68.5881V4.81818ZM74.8423 15.1392C76.9851 15.1392 78.2429 13.2053 78.2429 9.90909C78.2429 6.62784 76.9751 4.67898 74.8423 4.67898C72.7095 4.67898 71.4418 6.62784 71.4418 9.90909C71.4418 13.2053 72.6996 15.1392 74.8423 15.1392ZM74.8423 14.304C73.2763 14.304 72.3416 12.6982 72.3416 9.90909C72.3416 7.125 73.2812 5.49929 74.8423 5.49929C76.4034 5.49929 77.343 7.125 77.343 9.90909C77.343 12.6982 76.4084 14.304 74.8423 14.304Z" fill="white" fill-opacity="0.32"/>
<path d="M89.3672 4.81818H88.3928L92.0966 15H93.0909L96.7947 4.81818H95.8203L92.6385 13.7919H92.549L89.3672 4.81818ZM98.3658 15H99.2557V7.36364H98.3658V15ZM98.8182 6.05114C99.1811 6.05114 99.4844 5.76278 99.4844 5.41477C99.4844 5.06676 99.1811 4.77841 98.8182 4.77841C98.4553 4.77841 98.157 5.06676 98.157 5.41477C98.157 5.76278 98.4553 6.05114 98.8182 6.05114ZM104.683 15.1591C106.215 15.1591 107.244 14.3288 107.592 13.3693L106.752 13.0959C106.458 13.782 105.767 14.3487 104.683 14.3487C103.122 14.3487 102.133 13.2102 102.093 11.4453H107.781V11.0078C107.781 8.45739 106.205 7.25923 104.549 7.25923C102.57 7.25923 101.203 8.91477 101.203 11.2266C101.203 13.5433 102.546 15.1591 104.683 15.1591ZM102.098 10.6648C102.193 9.2429 103.152 8.06463 104.549 8.06463C105.916 8.06463 106.876 9.19318 106.876 10.6648H102.098ZM111.426 15H112.341L114.151 8.74077H114.245L116.055 15H116.969L119.276 7.36364H118.342L116.532 13.6477H116.462L114.673 7.36364H113.733L111.928 13.6626H111.864L110.054 7.36364H109.119L111.426 15ZM125.133 15L126.222 11.9325H130.497L131.586 15H132.56L128.857 4.81818H127.862L124.158 15H125.133ZM126.52 11.0973L128.325 6.02628H128.394L130.199 11.0973H126.52ZM135.006 4.81818H134.121V15H135.006V4.81818ZM138.233 4.81818H137.348V15H138.233V4.81818Z" fill="white" fill-opacity="0.64"/>
<path d="M1136.28 4.81818H1135.37V13.3544H1135.29L1129.25 4.81818H1128.35V15H1129.28V6.47372H1129.36L1135.38 15H1136.28V4.81818ZM1138.99 15H1144.99V14.1648H1139.92V10.3217H1144.58V9.48651H1139.92V5.65341H1144.9V4.81818H1138.99V15ZM1147.46 4.81818H1146.36L1149.69 9.90909L1146.36 15H1147.46L1150.28 10.63H1150.34L1153.16 15H1154.26L1150.99 9.90909L1154.26 4.81818H1153.16L1150.34 9.23793H1150.28L1147.46 4.81818ZM1155.41 5.65341H1158.63V15H1159.56V5.65341H1162.79V4.81818H1155.41V5.65341Z" fill="white" fill-opacity="0.88"/>
<path d="M1043.35 15H1044.28V11.1072H1046.65C1048.81 11.1072 1049.92 9.74006 1049.92 7.96023C1049.92 6.1804 1048.81 4.81818 1046.64 4.81818H1043.35V15ZM1044.28 10.272V5.65341H1046.61C1048.22 5.65341 1049 6.62287 1049 7.96023C1049 9.29261 1048.22 10.272 1046.63 10.272H1044.28ZM1052.1 15H1053.03V10.8835H1055.4C1055.54 10.8835 1055.67 10.8786 1055.79 10.8686L1058.02 15H1059.1L1056.75 10.6896C1058.01 10.272 1058.67 9.22798 1058.67 7.86577C1058.67 6.08594 1057.55 4.81818 1055.39 4.81818H1052.1V15ZM1053.03 10.0334V5.65341H1055.36C1056.97 5.65341 1057.75 6.53338 1057.75 7.86577C1057.75 9.19815 1056.97 10.0334 1055.38 10.0334H1053.03ZM1060.93 15H1066.94V14.1648H1061.86V10.3217H1066.53V9.48651H1061.86V5.65341H1066.84V4.81818H1060.93V15ZM1069.26 4.81818H1068.29L1071.99 15H1072.99L1076.69 4.81818H1075.71L1072.53 13.7919H1072.44L1069.26 4.81818ZM1079.36 4.81818H1078.43V15H1079.36V4.81818ZM1090.42 9.90909C1090.42 6.7223 1088.59 4.67898 1086.01 4.67898C1083.44 4.67898 1081.61 6.72727 1081.61 9.90909C1081.61 13.0909 1083.44 15.1392 1086.01 15.1392C1088.59 15.1392 1090.42 13.0959 1090.42 9.90909ZM1089.51 9.90909C1089.52 12.6484 1088.02 14.2642 1086.01 14.2642C1084 14.2642 1082.51 12.6385 1082.51 9.90909C1082.51 7.16477 1084.01 5.55398 1086.01 5.55398C1088.02 5.55398 1089.51 7.16974 1089.51 9.90909ZM1099.45 4.81818V11.495C1099.45 13.1158 1098.3 14.299 1096.52 14.299C1094.75 14.299 1093.6 13.1158 1093.6 11.495V4.81818H1092.67V11.5597C1092.66 13.6378 1094.23 15.174 1096.52 15.174C1098.82 15.174 1100.38 13.6378 1100.38 11.5597V4.81818H1099.45ZM1108.61 7.36364H1109.51C1109.44 5.81747 1108.11 4.67401 1106.21 4.67401C1104.33 4.67401 1102.89 5.80256 1102.89 7.44318C1102.89 8.75071 1103.81 9.57102 1105.41 10.0433L1106.62 10.4013C1107.89 10.7692 1108.75 11.2415 1108.75 12.2805C1108.75 13.5036 1107.64 14.3239 1106.12 14.3239C1104.75 14.3239 1103.68 13.6626 1103.58 12.4545H1102.62C1102.73 14.0653 1104.04 15.174 1106.12 15.174C1108.33 15.174 1109.65 13.9261 1109.65 12.2955C1109.65 10.6051 1108.18 9.92898 1106.89 9.56605L1105.81 9.25781C1104.82 8.9794 1103.79 8.47727 1103.79 7.40341C1103.79 6.30966 1104.77 5.50923 1106.19 5.50923C1107.53 5.50923 1108.5 6.23011 1108.61 7.36364Z" fill="white" fill-opacity="0.64"/>
</svg>
