<svg width="88" height="88" viewBox="0 0 88 88" fill="none" xmlns="http://www.w3.org/2000/svg">
<g id="Iconly/Bulk/Upload">
<g id="Upload">
<path id="Fill 1" opacity="0.4" d="M23.6395 80.666C14.6525 80.666 7.33386 73.2218 7.33386 64.0761L7.33386 45.8853C7.33386 36.7582 14.6305 29.3327 23.6029 29.3327H64.3615C73.3522 29.3327 80.6672 36.7769 80.6672 45.9264V64.1096C80.6672 73.2405 73.3705 80.666 64.3982 80.666H60.9515H23.6395Z" fill="white"/>
<path id="Fill 3" d="M42.0024 8.14207L31.3361 18.5766C30.2361 19.6551 30.2361 21.3906 31.3434 22.4655C32.4508 23.5368 34.2364 23.5332 35.3364 22.4584L41.1774 16.7411V22.2227V52.9871C41.1774 54.5048 42.4424 55.7368 44.0008 55.7368C45.5628 55.7368 46.8241 54.5048 46.8241 52.9871V16.7411L52.6651 22.4584C53.7651 23.5332 55.5508 23.5368 56.6581 22.4655C57.2118 21.9263 57.4904 21.2228 57.4904 20.5157C57.4904 19.8158 57.2118 19.1123 56.6654 18.5766L46.0028 8.14207C45.4711 7.62428 44.7524 7.33145 44.0008 7.33145C43.2528 7.33145 42.5341 7.62428 42.0024 8.14207Z" fill="white"/>
</g>
</g>
</svg>
