<svg width="88" height="88" viewBox="0 0 88 88" fill="none" xmlns="http://www.w3.org/2000/svg">
<g id="Iconly/Bulk/Upload">
<g id="Upload">
<path id="Fill 1" opacity="0.4" d="M23.6397 80.666C14.6527 80.666 7.33398 73.2218 7.33398 64.0761L7.33398 45.8853C7.33398 36.7582 14.6307 29.3327 23.603 29.3327H64.3616C73.3523 29.3327 80.6673 36.7769 80.6673 45.9264V64.1096C80.6673 73.2405 73.3706 80.666 64.3983 80.666H60.9516H23.6397Z" fill="white"/>
<path id="Fill 3" d="M42.0026 8.14244L31.3363 18.577C30.2363 19.6555 30.2363 21.391 31.3436 22.4659C32.451 23.5372 34.2366 23.5336 35.3366 22.4587L41.1776 16.7415V22.223V52.9875C41.1776 54.5052 42.4426 55.7372 44.001 55.7372C45.563 55.7372 46.8243 54.5052 46.8243 52.9875V16.7415L52.6653 22.4587C53.7653 23.5336 55.551 23.5372 56.6583 22.4659C57.212 21.9266 57.4906 21.2231 57.4906 20.5161C57.4906 19.8162 57.212 19.1127 56.6656 18.577L46.003 8.14244C45.4713 7.62464 44.7526 7.33181 44.001 7.33181C43.253 7.33181 42.5343 7.62464 42.0026 8.14244Z" fill="white"/>
</g>
</g>
</svg>
