<svg width="321" height="140" viewBox="0 0 321 140" fill="none" xmlns="http://www.w3.org/2000/svg">
<g opacity="0.6">
<path d="M300.396 393.893L230.964 294.735C222.289 282.344 222.289 266.48 230.964 254.09L305.146 148.147C313.004 136.927 330.95 136.927 338.808 148.147L412.99 254.09C421.665 266.48 421.665 282.344 412.99 294.735L343.557 393.893C333.488 408.281 310.473 408.281 300.396 393.893Z" stroke="url(#paint0_linear)" stroke-width="0.444747" stroke-miterlimit="10"/>
<path d="M243.317 384.626L193.49 274.305C187.265 260.52 190.208 244.933 201.032 234.367L293.583 144.027C303.387 134.458 321.024 137.788 326.66 150.274L379.898 268.14C386.122 281.924 383.179 297.512 372.356 308.078L285.732 392.631C273.161 404.904 250.546 400.636 243.317 384.626Z" stroke="url(#paint1_linear)" stroke-width="0.444747" stroke-miterlimit="10"/>
<path d="M188.943 364.932L160.449 247.284C156.888 232.583 162.675 217.812 175.268 209.439L282.972 137.839C294.381 130.257 311.094 136.802 314.317 150.116L344.76 275.814C348.321 290.515 342.534 305.286 329.941 313.659L229.135 380.671C214.508 390.398 193.078 382.003 188.943 364.932Z" stroke="url(#paint2_linear)" stroke-width="0.444747" stroke-miterlimit="10"/>
<path d="M139.17 335.49L133 214.597C132.228 199.491 140.656 186.048 154.585 180.158L273.705 129.786C286.324 124.452 301.529 133.984 302.228 147.662L308.82 276.826C309.593 291.931 301.164 305.374 287.236 311.264L175.746 358.41C159.566 365.256 140.064 353.035 139.17 335.49Z" stroke="url(#paint3_linear)" stroke-width="0.444747" stroke-miterlimit="10"/>
<path d="M95.7224 297.325L112.09 177.388C114.135 162.404 124.907 150.756 139.689 147.552L266.086 120.158C279.474 117.256 292.648 129.444 290.798 143.019L273.312 271.164C271.266 286.148 260.494 297.796 245.712 301L127.409 326.642C110.243 330.358 93.3495 314.73 95.7224 297.325Z" stroke="url(#paint4_linear)" stroke-width="0.444747" stroke-miterlimit="10"/>
<path d="M60.1131 251.761L98.4512 136.941C103.241 122.594 115.989 113.15 131.109 112.745L260.394 109.28C274.087 108.912 284.774 123.333 280.433 136.327L239.472 259.001C234.682 273.349 221.935 282.793 206.814 283.197L85.8067 286.442C68.2509 286.917 54.5505 268.423 60.1131 251.761Z" stroke="url(#paint5_linear)" stroke-width="0.444747" stroke-miterlimit="10"/>
<path d="M33.574 200.385L92.5472 94.6743C99.9161 81.467 114.194 74.5506 129.127 76.9566L256.812 97.5365C270.335 99.7181 278.16 115.869 271.487 127.833L208.478 240.776C201.109 253.983 186.831 260.9 171.898 258.493L52.3917 239.231C35.0492 236.435 25.0168 215.722 33.574 200.385Z" stroke="url(#paint6_linear)" stroke-width="0.444747" stroke-miterlimit="10"/>
<path d="M17.0299 144.973L94.5928 52.0391C104.283 40.4283 119.599 36.2822 133.825 41.418L255.473 85.3297C268.356 89.9799 273.05 107.304 264.273 117.822L181.401 217.113C171.711 228.723 156.395 232.87 142.169 227.734L28.3095 186.636C11.7874 180.669 5.77236 158.456 17.0299 144.973Z" stroke="url(#paint7_linear)" stroke-width="0.444747" stroke-miterlimit="10"/>
<path d="M11.0513 87.4524L104.515 10.5222C116.192 0.909201 132.011 -0.323251 145.034 7.36204L256.421 73.0862C268.22 80.0467 269.614 97.941 259.037 106.649L159.18 188.84C147.503 198.453 131.683 199.686 118.66 192L14.4065 130.485C-0.721274 121.56 -2.50924 98.6143 11.0513 87.4524Z" stroke="url(#paint8_linear)" stroke-width="0.444747" stroke-miterlimit="10"/>
<path d="M15.8527 29.822L121.964 -28.4302C135.223 -35.7071 150.995 -33.9853 162.366 -24.0154L259.63 61.2327C269.931 70.2608 267.981 88.1037 255.973 94.6963L142.599 156.933C129.34 164.21 113.569 162.488 102.197 152.518L11.1657 72.7331C-2.04531 61.1518 0.456366 38.2762 15.8527 29.822Z" stroke="url(#paint9_linear)" stroke-width="0.444747" stroke-miterlimit="10"/>
<path d="M31.2641 -25.9136L146.341 -63.4645C160.718 -68.1551 175.898 -63.538 185.224 -51.6293L264.976 50.1851C273.422 60.968 268.198 78.1413 255.175 82.3905L132.225 122.513C117.848 127.204 102.669 122.586 93.3424 110.678L18.6932 15.3787C7.86243 1.54961 14.5618 -20.4651 31.2641 -25.9136Z" stroke="url(#paint10_linear)" stroke-width="0.444747" stroke-miterlimit="10"/>
<path d="M56.7435 -77.827L176.791 -93.3742C191.79 -95.3167 205.847 -87.9625 212.804 -74.5307L272.281 40.3145C278.579 52.4807 270.261 68.3811 256.675 70.1396L128.413 86.75C113.414 88.6924 99.3566 81.3383 92.3997 67.9065L36.7338 -39.5808C28.6549 -55.1795 39.3238 -75.5718 56.7435 -77.827Z" stroke="url(#paint11_linear)" stroke-width="0.444747" stroke-miterlimit="10"/>
<path d="M91.418 -124.108L212.267 -117.111C227.366 -116.235 239.815 -106.402 244.156 -91.9139L281.291 31.9705C285.224 45.0932 274.099 59.1762 260.421 58.3852L131.309 50.9096C116.21 50.034 103.761 40.2002 99.4196 25.7126L64.6574 -90.24C59.6136 -107.067 73.8805 -125.124 91.418 -124.108Z" stroke="url(#paint12_linear)" stroke-width="0.444747" stroke-miterlimit="10"/>
<path d="M134.075 -163.153L251.524 -133.857C266.2 -130.197 276.607 -118.222 278.186 -103.179L291.691 25.4478C293.122 39.0709 279.576 50.8472 266.284 47.5288L140.8 16.2284C126.124 12.5679 115.717 0.592988 114.138 -14.4502L101.498 -134.84C99.6618 -152.307 117.03 -167.405 134.075 -163.153Z" stroke="url(#paint13_linear)" stroke-width="0.444747" stroke-miterlimit="10"/>
<path d="M183.237 -193.603L293.211 -143.021C306.952 -136.701 314.957 -123.004 313.717 -107.932L303.122 20.9669C302 34.6194 286.504 43.6769 274.058 37.9525L156.561 -16.091C142.82 -22.4114 134.814 -36.1081 136.054 -51.1807L145.969 -171.824C147.407 -189.332 167.277 -200.946 183.237 -193.603Z" stroke="url(#paint14_linear)" stroke-width="0.444747" stroke-miterlimit="10"/>
<path d="M237.195 -214.408L335.875 -144.302C348.207 -135.542 353.531 -120.599 349.517 -106.015L315.192 18.6785C311.558 31.8858 294.649 37.9082 283.48 29.9765L178.046 -44.9266C165.714 -53.6861 160.39 -68.6299 164.404 -83.2132L196.536 -199.92C201.197 -216.858 222.877 -224.58 237.195 -214.408Z" stroke="url(#paint15_linear)" stroke-width="0.444747" stroke-miterlimit="10"/>
<path d="M294.075 -224.837L378.035 -137.639C388.528 -126.742 390.985 -111.07 384.334 -97.4872L327.468 18.675C321.446 30.9774 303.713 33.7623 294.211 23.8918L204.507 -69.2735C194.015 -80.1705 191.557 -95.8427 198.209 -109.425L251.432 -218.145C259.154 -233.92 281.89 -237.489 294.075 -224.837Z" stroke="url(#paint16_linear)" stroke-width="0.444747" stroke-miterlimit="10"/>
<path d="M351.904 -224.528L418.228 -123.266C426.517 -110.614 426.024 -94.7576 416.966 -82.6429L339.536 20.9485C331.335 31.9227 313.393 31.3635 305.888 19.9037L235.028 -88.2864C226.74 -100.938 227.233 -116.794 236.29 -128.909L308.761 -225.867C319.276 -239.939 342.28 -239.226 351.904 -224.528Z" stroke="url(#paint17_linear)" stroke-width="0.444747" stroke-miterlimit="10"/>
<path d="M408.67 -213.499L455.054 -101.689C460.848 -87.72 457.423 -72.228 446.28 -62.0042L350.97 25.4219C340.875 34.6818 323.348 30.8079 318.102 18.1524L268.547 -101.31C262.752 -115.279 266.178 -130.771 277.321 -140.995L366.524 -222.821C379.47 -234.693 401.941 -229.723 408.67 -213.499Z" stroke="url(#paint18_linear)" stroke-width="0.444747" stroke-miterlimit="10"/>
<path d="M462.405 -192.128L487.238 -73.6516C490.339 -58.8475 484.1 -44.2606 471.249 -36.2846L361.378 31.9375C349.741 39.1629 333.238 32.103 330.427 18.697L303.895 -107.884C300.793 -122.688 307.033 -137.275 319.883 -145.251L422.72 -209.106C437.646 -218.373 458.803 -209.32 462.405 -192.128Z" stroke="url(#paint19_linear)" stroke-width="0.444747" stroke-miterlimit="10"/>
<path d="M396.213 385.435L299.752 312.302C287.7 303.163 282.84 288.061 287.306 273.61L325.482 150.042C329.525 136.953 346.61 131.456 357.529 139.734L460.591 217.871C472.643 227.009 477.503 242.111 473.037 256.562L437.307 372.217C432.12 389 410.212 396.049 396.213 385.435Z" stroke="url(#paint20_linear)" stroke-width="0.444747" stroke-miterlimit="10"/>
<path d="M339.039 394.095L257.823 304.333C247.677 293.116 245.705 277.377 252.772 264.004L313.213 149.663C319.615 137.552 337.424 135.323 346.614 145.48L433.385 241.383C443.532 252.6 445.504 268.338 438.437 281.711L381.866 388.728C373.658 404.26 350.823 407.122 339.039 394.095Z" stroke="url(#paint21_linear)" stroke-width="0.444747" stroke-miterlimit="10"/>
<path d="M270.652 390.402L211.105 285.011C203.666 271.844 205.193 256.051 215.023 244.558L299.072 146.26C307.975 135.849 325.84 137.578 332.579 149.505L396.203 262.106C403.642 275.273 402.115 291.067 392.285 302.56L313.618 394.562C302.199 407.913 279.294 405.695 270.652 390.402Z" stroke="url(#paint22_linear)" stroke-width="0.444747" stroke-miterlimit="10"/>
<path d="M214.729 375.675L175.769 261.065C170.902 246.747 175.335 231.512 187.126 222.039L287.955 141.044C298.635 132.464 315.867 137.479 320.278 150.451L361.901 272.9C366.768 287.219 362.335 302.453 350.544 311.926L256.172 387.734C242.479 398.738 220.384 392.307 214.729 375.675Z" stroke="url(#paint23_linear)" stroke-width="0.444747" stroke-miterlimit="10"/>
<path d="M162.509 350.831L145.491 230.982C143.364 216.009 150.546 201.86 163.893 194.741L277.999 133.862C290.084 127.413 306.087 135.54 308.015 149.1L326.196 277.149C328.323 292.122 321.141 306.272 307.794 313.39L200.995 370.373C185.499 378.64 164.978 368.221 162.509 350.831Z" stroke="url(#paint24_linear)" stroke-width="0.444747" stroke-miterlimit="10"/>
<path d="M115.806 316.727L121.321 195.804C122.009 180.695 131.692 168.128 146.124 163.606L269.545 124.956C282.62 120.861 296.835 131.817 296.214 145.499L290.324 274.696C289.636 289.805 279.953 302.372 265.52 306.894L150.002 343.068C133.237 348.322 115.008 334.276 115.806 316.727Z" stroke="url(#paint25_linear)" stroke-width="0.444747" stroke-miterlimit="10"/>
<path d="M76.2423 274.552L104.096 156.749C107.576 142.029 119.422 131.478 134.443 129.712L262.893 114.632C276.498 113.036 288.436 126.438 285.287 139.767L255.524 265.627C252.044 280.346 240.198 290.897 225.177 292.663L104.953 306.779C87.5072 308.828 72.1992 291.644 76.2423 274.552Z" stroke="url(#paint26_linear)" stroke-width="0.444747" stroke-miterlimit="10"/>
<path d="M45.1885 225.766L94.4163 115.177C100.567 101.359 114.165 93.1879 129.252 94.2401L258.269 103.253C271.936 104.21 281.181 119.592 275.607 132.107L223.01 250.26C216.858 264.078 203.261 272.249 188.174 271.197L67.4166 262.761C49.9012 261.54 38.0477 241.813 45.1885 225.766Z" stroke="url(#paint27_linear)" stroke-width="0.444747" stroke-miterlimit="10"/>
<path d="M23.7294 172.068L92.621 72.5345C101.23 60.0997 116.107 54.5923 130.738 58.4258L255.844 91.2198C269.096 94.6927 275.324 111.527 267.528 122.789L193.924 229.132C185.315 241.567 170.438 247.074 155.807 243.241L38.71 212.547C21.7207 208.096 13.73 186.511 23.7294 172.068Z" stroke="url(#paint28_linear)" stroke-width="0.444747" stroke-miterlimit="10"/>
<path d="M12.6041 115.32L98.7683 30.2967C109.533 19.6719 125.176 17.0231 138.839 23.5054L255.686 78.9432C268.062 84.8148 271.06 102.51 261.311 112.134L169.253 202.975C158.488 213.599 142.846 216.248 129.182 209.766L19.8148 157.878C3.94388 150.348 0.0993942 127.656 12.6041 115.32Z" stroke="url(#paint29_linear)" stroke-width="0.444747" stroke-miterlimit="10"/>
<path d="M12.1995 57.4914L112.642 -10.0685C125.191 -18.5116 141.054 -18.2136 153.279 -9.30692L257.812 66.8507C268.886 74.9185 268.548 92.8607 257.18 100.509L149.865 172.69C137.316 181.133 121.453 180.835 109.228 171.928L11.3902 100.649C-2.80683 90.3038 -2.37639 67.2958 12.1995 57.4914Z" stroke="url(#paint30_linear)" stroke-width="0.444747" stroke-miterlimit="10"/>
<path d="M22.5332 0.593167L133.766 -47.1557C147.665 -53.1229 163.197 -49.8854 173.557 -38.867L262.146 55.3614C271.531 65.3424 267.87 82.9129 255.281 88.3173L136.437 139.333C122.538 145.3 107.005 142.063 96.6453 131.044L13.7295 42.8494C1.69943 30.0541 6.39375 7.52427 22.5332 0.593167Z" stroke="url(#paint31_linear)" stroke-width="0.444747" stroke-miterlimit="10"/>
<path d="M43.2456 -53.399L161.409 -79.6813C176.173 -82.9666 190.833 -76.9037 198.971 -64.1526L268.532 44.8763C275.901 56.4244 269.044 73.0127 255.671 75.9853L129.425 104.067C114.661 107.352 100 101.289 91.8627 88.5378L26.753 -13.5084C17.3055 -28.3161 26.0981 -49.584 43.2456 -53.399Z" stroke="url(#paint32_linear)" stroke-width="0.444747" stroke-miterlimit="10"/>
<path d="M73.6152 -102.612L194.601 -106.515C209.717 -107.005 222.998 -98.3259 228.627 -84.2871L276.755 35.7564C281.854 48.4708 272.038 63.4992 258.345 63.9407L129.082 68.1089C113.966 68.5982 100.685 59.9196 95.056 45.8808L50.0075 -66.4738C43.4738 -82.7788 56.0594 -102.045 73.6152 -102.612Z" stroke="url(#paint33_linear)" stroke-width="0.444747" stroke-miterlimit="10"/>
<path d="M112.586 -145.336L232.196 -126.72C247.139 -124.395 258.581 -113.406 261.509 -98.5654L286.53 28.3247C289.178 41.7638 276.747 54.71 263.209 52.6019L135.414 32.7136C120.47 30.3885 109.029 19.3996 106.1 4.55877L82.6837 -114.205C79.2881 -131.437 95.2326 -148.036 112.586 -145.336Z" stroke="url(#paint34_linear)" stroke-width="0.444747" stroke-miterlimit="10"/>
<path d="M158.812 -180.083L272.892 -139.6C287.144 -134.541 296.349 -121.621 296.47 -106.497L297.512 22.8322C297.622 36.5325 283.002 46.9439 270.093 42.3636L148.21 -0.88957C133.957 -5.9481 124.753 -18.8685 124.631 -33.9926L123.656 -155.037C123.513 -172.607 142.257 -185.958 158.812 -180.083Z" stroke="url(#paint35_linear)" stroke-width="0.444747" stroke-miterlimit="10"/>
<path d="M210.682 -205.655L315.27 -144.707C328.338 -137.091 334.986 -122.685 332.3 -107.803L309.329 19.4731C306.897 32.9527 290.599 40.4724 278.764 33.5781L167.02 -31.539C153.953 -39.1544 147.305 -53.5611 149.99 -68.4423L171.49 -187.566C174.606 -204.857 195.502 -214.5 210.682 -205.655Z" stroke="url(#paint36_linear)" stroke-width="0.444747" stroke-miterlimit="10"/>
<path d="M266.391 -221.158L357.853 -141.863C369.28 -131.955 373.139 -116.566 367.738 -102.439L321.549 18.366C316.656 31.1613 299.248 35.5282 288.895 26.5516L191.179 -58.1668C179.752 -68.0742 175.893 -83.4632 181.294 -97.5903L224.525 -210.659C230.798 -227.067 253.121 -232.662 266.391 -221.158Z" stroke="url(#paint37_linear)" stroke-width="0.444747" stroke-miterlimit="10"/>
<path d="M324.015 -226.055L399.175 -131.168C408.567 -119.311 409.502 -103.473 401.574 -90.5931L333.775 19.5431C326.593 31.209 308.677 32.2686 300.171 21.5298L219.864 -79.8506C210.472 -91.7078 209.537 -107.546 217.465 -120.426L280.923 -223.509C290.132 -238.464 313.106 -239.822 324.015 -226.055Z" stroke="url(#paint38_linear)" stroke-width="0.444747" stroke-miterlimit="10"/>
<path d="M381.542 -220.172L437.793 -112.987C444.819 -99.5953 442.803 -83.8568 432.62 -72.6728L345.565 22.9683C336.342 33.1001 318.54 30.8155 312.175 18.6861L252.073 -95.8317C245.046 -109.223 247.062 -124.961 257.245 -136.145L338.73 -225.665C350.554 -238.655 373.378 -235.727 381.542 -220.172Z" stroke="url(#paint39_linear)" stroke-width="0.444747" stroke-miterlimit="10"/>
<path d="M436.98 -203.72L472.368 -87.959C476.79 -73.4934 471.886 -58.4061 459.808 -49.3045L356.515 28.5233C345.573 36.7678 328.503 31.22 324.5 18.1193L286.692 -105.563C282.27 -120.028 287.174 -135.116 299.252 -144.217L395.931 -217.064C409.958 -227.633 431.848 -220.522 436.98 -203.72Z" stroke="url(#paint40_linear)" stroke-width="0.444747" stroke-miterlimit="10"/>
<path d="M488.405 -177.269L501.696 -56.9491C503.359 -41.917 495.74 -27.9996 482.18 -21.2966L366.246 36.0138C353.965 42.0841 338.219 33.468 336.718 19.8523L322.514 -108.697C320.855 -123.729 328.47 -137.646 342.031 -144.349L450.545 -197.992C466.29 -205.777 486.477 -194.729 488.405 -177.269Z" stroke="url(#paint41_linear)" stroke-width="0.444747" stroke-miterlimit="10"/>
<path d="M423.004 377.455L320.358 313.295C307.533 305.278 301.334 290.673 304.483 275.88L331.391 149.38C334.242 135.981 350.764 128.969 362.379 136.231L472.048 204.781C484.873 212.797 491.072 227.403 487.922 242.196L462.736 360.598C459.083 377.775 437.9 386.767 423.004 377.455Z" stroke="url(#paint42_linear)" stroke-width="0.444747" stroke-miterlimit="10"/>
<path d="M366.837 391.222L277.877 309.13C266.763 298.874 263.382 283.374 269.22 269.42L319.132 150.105C324.419 137.468 341.956 133.645 352.022 142.935L447.067 230.644C458.181 240.901 461.562 256.4 455.724 270.354L409.008 382.028C402.232 398.234 379.746 403.134 366.837 391.222Z" stroke="url(#paint43_linear)" stroke-width="0.444747" stroke-miterlimit="10"/>
</g>
<defs>
<linearGradient id="paint0_linear" x1="250.577" y1="344.855" x2="393.383" y2="202.049" gradientUnits="userSpaceOnUse">
<stop stop-color="#FF8B71"/>
<stop offset="0.5562" stop-color="#FD3F75"/>
<stop offset="1" stop-color="#FB0078"/>
</linearGradient>
<linearGradient id="paint1_linear" x1="203.39" y1="327.257" x2="370.201" y2="213.426" gradientUnits="userSpaceOnUse">
<stop stop-color="#FF8B71"/>
<stop offset="0.5562" stop-color="#FD3F75"/>
<stop offset="1" stop-color="#FB0078"/>
</linearGradient>
<linearGradient id="paint2_linear" x1="160.373" y1="301.194" x2="345.406" y2="220.295" gradientUnits="userSpaceOnUse">
<stop stop-color="#FF8B71"/>
<stop offset="0.5562" stop-color="#FD3F75"/>
<stop offset="1" stop-color="#FB0078"/>
</linearGradient>
<linearGradient id="paint3_linear" x1="123.046" y1="267.515" x2="319.89" y2="222.36" gradientUnits="userSpaceOnUse">
<stop stop-color="#FF8B71"/>
<stop offset="0.5562" stop-color="#FD3F75"/>
<stop offset="1" stop-color="#FB0078"/>
</linearGradient>
<linearGradient id="paint4_linear" x1="92.4884" y1="227.434" x2="294.301" y2="219.58" gradientUnits="userSpaceOnUse">
<stop stop-color="#FF8B71"/>
<stop offset="0.5562" stop-color="#FD3F75"/>
<stop offset="1" stop-color="#FB0078"/>
</linearGradient>
<linearGradient id="paint5_linear" x1="69.9087" y1="182.578" x2="269.665" y2="212.31" gradientUnits="userSpaceOnUse">
<stop stop-color="#FF8B71"/>
<stop offset="0.5562" stop-color="#FD3F75"/>
<stop offset="1" stop-color="#FB0078"/>
</linearGradient>
<linearGradient id="paint6_linear" x1="56.0212" y1="134.181" x2="246.795" y2="200.458" gradientUnits="userSpaceOnUse">
<stop stop-color="#FF8B71"/>
<stop offset="0.5562" stop-color="#FD3F75"/>
<stop offset="1" stop-color="#FB0078"/>
</linearGradient>
<linearGradient id="paint7_linear" x1="51.229" y1="84.0474" x2="226.395" y2="184.554" gradientUnits="userSpaceOnUse">
<stop stop-color="#FF8B71"/>
<stop offset="0.5562" stop-color="#FD3F75"/>
<stop offset="1" stop-color="#FB0078"/>
</linearGradient>
<linearGradient id="paint8_linear" x1="56.1398" y1="33.9781" x2="209.613" y2="165.259" gradientUnits="userSpaceOnUse">
<stop stop-color="#FF8B71"/>
<stop offset="0.5562" stop-color="#FD3F75"/>
<stop offset="1" stop-color="#FB0078"/>
</linearGradient>
<linearGradient id="paint9_linear" x1="70.0249" y1="-14.4028" x2="196.479" y2="143.069" gradientUnits="userSpaceOnUse">
<stop stop-color="#FF8B71"/>
<stop offset="0.5562" stop-color="#FD3F75"/>
<stop offset="1" stop-color="#FB0078"/>
</linearGradient>
<linearGradient id="paint10_linear" x1="92.7655" y1="-59.2966" x2="187.803" y2="118.911" gradientUnits="userSpaceOnUse">
<stop stop-color="#FF8B71"/>
<stop offset="0.5562" stop-color="#FD3F75"/>
<stop offset="1" stop-color="#FB0078"/>
</linearGradient>
<linearGradient id="paint11_linear" x1="123.238" y1="-99.1855" x2="183.559" y2="93.545" gradientUnits="userSpaceOnUse">
<stop stop-color="#FF8B71"/>
<stop offset="0.5562" stop-color="#FD3F75"/>
<stop offset="1" stop-color="#FB0078"/>
</linearGradient>
<linearGradient id="paint12_linear" x1="160.82" y1="-132.713" x2="184.325" y2="67.872" gradientUnits="userSpaceOnUse">
<stop stop-color="#FF8B71"/>
<stop offset="0.5562" stop-color="#FD3F75"/>
<stop offset="1" stop-color="#FB0078"/>
</linearGradient>
<linearGradient id="paint13_linear" x1="203.892" y1="-158.838" x2="189.783" y2="42.6328" gradientUnits="userSpaceOnUse">
<stop stop-color="#FF8B71"/>
<stop offset="0.5562" stop-color="#FD3F75"/>
<stop offset="1" stop-color="#FB0078"/>
</linearGradient>
<linearGradient id="paint14_linear" x1="251" y1="-176.325" x2="199.747" y2="19.0188" gradientUnits="userSpaceOnUse">
<stop stop-color="#FF8B71"/>
<stop offset="0.5562" stop-color="#FD3F75"/>
<stop offset="1" stop-color="#FB0078"/>
</linearGradient>
<linearGradient id="paint15_linear" x1="300.574" y1="-184.944" x2="213.977" y2="-2.49536" gradientUnits="userSpaceOnUse">
<stop stop-color="#FF8B71"/>
<stop offset="0.5562" stop-color="#FD3F75"/>
<stop offset="1" stop-color="#FB0078"/>
</linearGradient>
<linearGradient id="paint16_linear" x1="350.872" y1="-184.134" x2="231.929" y2="-20.9215" gradientUnits="userSpaceOnUse">
<stop stop-color="#FF8B71"/>
<stop offset="0.5562" stop-color="#FD3F75"/>
<stop offset="1" stop-color="#FB0078"/>
</linearGradient>
<linearGradient id="paint17_linear" x1="400.157" y1="-173.979" x2="252.995" y2="-35.6714" gradientUnits="userSpaceOnUse">
<stop stop-color="#FF8B71"/>
<stop offset="0.5562" stop-color="#FD3F75"/>
<stop offset="1" stop-color="#FB0078"/>
</linearGradient>
<linearGradient id="paint18_linear" x1="446.713" y1="-154.883" x2="276.446" y2="-46.2791" gradientUnits="userSpaceOnUse">
<stop stop-color="#FF8B71"/>
<stop offset="0.5562" stop-color="#FD3F75"/>
<stop offset="1" stop-color="#FB0078"/>
</linearGradient>
<linearGradient id="paint19_linear" x1="488.918" y1="-127.482" x2="301.457" y2="-52.3517" gradientUnits="userSpaceOnUse">
<stop stop-color="#FF8B71"/>
<stop offset="0.5562" stop-color="#FD3F75"/>
<stop offset="1" stop-color="#FB0078"/>
</linearGradient>
<linearGradient id="paint20_linear" x1="333.814" y1="353.969" x2="426.038" y2="174.291" gradientUnits="userSpaceOnUse">
<stop stop-color="#FF8B71"/>
<stop offset="0.5562" stop-color="#FD3F75"/>
<stop offset="1" stop-color="#FB0078"/>
</linearGradient>
<linearGradient id="paint21_linear" x1="283.464" y1="351.693" x2="407.406" y2="192.25" gradientUnits="userSpaceOnUse">
<stop stop-color="#FF8B71"/>
<stop offset="0.5562" stop-color="#FD3F75"/>
<stop offset="1" stop-color="#FB0078"/>
</linearGradient>
<linearGradient id="paint22_linear" x1="225.764" y1="336.85" x2="381.665" y2="208.482" gradientUnits="userSpaceOnUse">
<stop stop-color="#FF8B71"/>
<stop offset="0.5562" stop-color="#FD3F75"/>
<stop offset="1" stop-color="#FB0078"/>
</linearGradient>
<linearGradient id="paint23_linear" x1="180.566" y1="314.623" x2="357.588" y2="217.401" gradientUnits="userSpaceOnUse">
<stop stop-color="#FF8B71"/>
<stop offset="0.5562" stop-color="#FD3F75"/>
<stop offset="1" stop-color="#FB0078"/>
</linearGradient>
<linearGradient id="paint24_linear" x1="140.247" y1="284.477" x2="332.235" y2="221.785" gradientUnits="userSpaceOnUse">
<stop stop-color="#FF8B71"/>
<stop offset="0.5562" stop-color="#FD3F75"/>
<stop offset="1" stop-color="#FB0078"/>
</linearGradient>
<linearGradient id="paint25_linear" x1="106.263" y1="247.429" x2="306.548" y2="221.452" gradientUnits="userSpaceOnUse">
<stop stop-color="#FF8B71"/>
<stop offset="0.5562" stop-color="#FD3F75"/>
<stop offset="1" stop-color="#FB0078"/>
</linearGradient>
<linearGradient id="paint26_linear" x1="79.739" y1="204.691" x2="281.366" y2="216.329" gradientUnits="userSpaceOnUse">
<stop stop-color="#FF8B71"/>
<stop offset="0.5562" stop-color="#FD3F75"/>
<stop offset="1" stop-color="#FB0078"/>
</linearGradient>
<linearGradient id="paint27_linear" x1="61.4898" y1="157.817" x2="257.448" y2="206.656" gradientUnits="userSpaceOnUse">
<stop stop-color="#FF8B71"/>
<stop offset="0.5562" stop-color="#FD3F75"/>
<stop offset="1" stop-color="#FB0078"/>
</linearGradient>
<linearGradient id="paint28_linear" x1="52.3943" y1="108.366" x2="235.885" y2="192.721" gradientUnits="userSpaceOnUse">
<stop stop-color="#FF8B71"/>
<stop offset="0.5562" stop-color="#FD3F75"/>
<stop offset="1" stop-color="#FB0078"/>
</linearGradient>
<linearGradient id="paint29_linear" x1="52.5339" y1="58.0207" x2="217.189" y2="174.95" gradientUnits="userSpaceOnUse">
<stop stop-color="#FF8B71"/>
<stop offset="0.5562" stop-color="#FD3F75"/>
<stop offset="1" stop-color="#FB0078"/>
</linearGradient>
<linearGradient id="paint30_linear" x1="62.1822" y1="8.69283" x2="202.275" y2="154.155" gradientUnits="userSpaceOnUse">
<stop stop-color="#FF8B71"/>
<stop offset="0.5562" stop-color="#FD3F75"/>
<stop offset="1" stop-color="#FB0078"/>
</linearGradient>
<linearGradient id="paint31_linear" x1="80.6654" y1="-38.2555" x2="191.354" y2="130.669" gradientUnits="userSpaceOnUse">
<stop stop-color="#FF8B71"/>
<stop offset="0.5562" stop-color="#FD3F75"/>
<stop offset="1" stop-color="#FB0078"/>
</linearGradient>
<linearGradient id="paint32_linear" x1="107.482" y1="-80.6887" x2="184.897" y2="105.83" gradientUnits="userSpaceOnUse">
<stop stop-color="#FF8B71"/>
<stop offset="0.5562" stop-color="#FD3F75"/>
<stop offset="1" stop-color="#FB0078"/>
</linearGradient>
<linearGradient id="paint33_linear" x1="141.937" y1="-117.463" x2="183.394" y2="80.1944" gradientUnits="userSpaceOnUse">
<stop stop-color="#FF8B71"/>
<stop offset="0.5562" stop-color="#FD3F75"/>
<stop offset="1" stop-color="#FB0078"/>
</linearGradient>
<linearGradient id="paint34_linear" x1="182.429" y1="-147.301" x2="186.499" y2="54.6121" gradientUnits="userSpaceOnUse">
<stop stop-color="#FF8B71"/>
<stop offset="0.5562" stop-color="#FD3F75"/>
<stop offset="1" stop-color="#FB0078"/>
</linearGradient>
<linearGradient id="paint35_linear" x1="227.856" y1="-169.12" x2="194.396" y2="30.0507" gradientUnits="userSpaceOnUse">
<stop stop-color="#FF8B71"/>
<stop offset="0.5562" stop-color="#FD3F75"/>
<stop offset="1" stop-color="#FB0078"/>
</linearGradient>
<linearGradient id="paint36_linear" x1="276.469" y1="-182.07" x2="206.637" y2="7.43275" gradientUnits="userSpaceOnUse">
<stop stop-color="#FF8B71"/>
<stop offset="0.5562" stop-color="#FD3F75"/>
<stop offset="1" stop-color="#FB0078"/>
</linearGradient>
<linearGradient id="paint37_linear" x1="326.678" y1="-185.693" x2="222.887" y2="-12.4416" gradientUnits="userSpaceOnUse">
<stop stop-color="#FF8B71"/>
<stop offset="0.5562" stop-color="#FD3F75"/>
<stop offset="1" stop-color="#FB0078"/>
</linearGradient>
<linearGradient id="paint38_linear" x1="376.697" y1="-180.023" x2="242.559" y2="-29.0347" gradientUnits="userSpaceOnUse">
<stop stop-color="#FF8B71"/>
<stop offset="0.5562" stop-color="#FD3F75"/>
<stop offset="1" stop-color="#FB0078"/>
</linearGradient>
<linearGradient id="paint39_linear" x1="424.748" y1="-165.235" x2="264.934" y2="-41.7508" gradientUnits="userSpaceOnUse">
<stop stop-color="#FF8B71"/>
<stop offset="0.5562" stop-color="#FD3F75"/>
<stop offset="1" stop-color="#FB0078"/>
</linearGradient>
<linearGradient id="paint40_linear" x1="469.173" y1="-141.635" x2="289.224" y2="-49.9677" gradientUnits="userSpaceOnUse">
<stop stop-color="#FF8B71"/>
<stop offset="0.5562" stop-color="#FD3F75"/>
<stop offset="1" stop-color="#FB0078"/>
</linearGradient>
<linearGradient id="paint41_linear" x1="508.561" y1="-110.377" x2="314.731" y2="-53.6691" gradientUnits="userSpaceOnUse">
<stop stop-color="#FF8B71"/>
<stop offset="0.5562" stop-color="#FD3F75"/>
<stop offset="1" stop-color="#FB0078"/>
</linearGradient>
<linearGradient id="paint42_linear" x1="358.004" y1="351.731" x2="433.692" y2="164.484" gradientUnits="userSpaceOnUse">
<stop stop-color="#FF8B71"/>
<stop offset="0.5562" stop-color="#FD3F75"/>
<stop offset="1" stop-color="#FB0078"/>
</linearGradient>
<linearGradient id="paint43_linear" x1="307.714" y1="353.991" x2="416.818" y2="184.052" gradientUnits="userSpaceOnUse">
<stop stop-color="#FF8B71"/>
<stop offset="0.5562" stop-color="#FD3F75"/>
<stop offset="1" stop-color="#FB0078"/>
</linearGradient>
</defs>
</svg>
