<svg width="170" height="44" viewBox="0 0 170 44" fill="none" xmlns="http://www.w3.org/2000/svg">
<path d="M52.6003 18.1374L40.7404 1.90246C39.8564 0.691805 38.492 0 36.9931 0C35.4942 0 34.1298 0.695007 33.2458 1.90246L31.9551 3.6672L30.6644 1.90246C29.7804 0.691805 28.416 0 26.9171 0C25.4182 0 24.0538 0.695007 23.1698 1.90246L21.8951 3.64799L20.6204 1.90246C19.7364 0.691805 18.372 0 16.8731 0C15.3742 0 14.0098 0.695007 13.1259 1.90246L1.2659 18.1374C-0.421968 20.4466 -0.421968 23.5534 1.2659 25.8626L13.1259 42.0975C14.0098 43.3082 15.3742 44 16.8731 44C18.372 44 19.7364 43.305 20.6204 42.0975L26.9331 33.4564L28.2366 35.2404C28.2398 35.2468 28.2463 35.2532 28.2495 35.2596L33.2458 42.0975C34.1298 43.3082 35.4942 44 36.9931 44C38.492 44 39.8564 43.305 40.7404 42.0975L52.6003 25.8626C54.2882 23.5534 54.2882 20.4466 52.6003 18.1374ZM25.0659 3.28607C25.5047 2.68715 26.1804 2.34445 26.9203 2.34445C27.6601 2.34445 28.3391 2.68715 28.7747 3.28607L30.5074 5.65614L26.9363 10.5436L23.3492 5.63372L25.0659 3.28607ZM18.7307 40.7139C18.292 41.3129 17.6162 41.6556 16.8763 41.6556C16.1365 41.6556 15.4575 41.3129 15.0219 40.7139L3.16196 24.479C2.07942 22.9961 2.07942 21.0039 3.16196 19.5178L15.0219 3.28286C15.4607 2.68394 16.1365 2.34124 16.8763 2.34124C17.6162 2.34124 18.2952 2.68394 18.7307 3.28286L20.4474 5.63052L11.3131 18.1342C9.6252 20.4434 9.6252 23.5502 11.3163 25.8626L12.0113 26.8042L18.135 35.2371C18.9133 36.3037 20.0695 36.9699 21.3602 37.1108L18.7307 40.7139ZM23.7399 33.86C23.3011 34.4557 22.6253 34.8016 21.8823 34.8016C21.1424 34.8016 20.4635 34.4589 20.0311 33.8632L13.7344 25.1932L13.7312 25.1964L13.2059 24.4822C12.1234 22.9993 12.1234 21.0071 13.2059 19.521L21.8983 7.62265L25.4854 12.5325L21.3891 18.1406C19.7012 20.4499 19.7012 23.5566 21.3891 25.8658L25.4854 31.4739L23.7399 33.86ZM26.9363 14.5151L30.5907 19.5178C31.6732 21.0007 31.6732 22.9929 30.5907 24.479L26.9363 29.4817L23.2819 24.479C22.1994 22.9961 22.1994 21.0039 23.2819 19.5178L26.9363 14.5151ZM32.4835 25.8626C34.1714 23.5534 34.1714 20.4466 32.4835 18.1374L28.3872 12.5293L31.9583 7.64187L40.6347 19.521C41.7172 21.0039 41.7172 22.9961 40.6283 24.4886L39.2382 26.4199L33.8351 33.86C33.3963 34.4589 32.7206 34.8016 31.9807 34.8016C31.2473 34.8016 30.5779 34.4653 30.1423 33.8792L28.384 31.4739L32.4835 25.8626ZM50.7107 24.479L38.8507 40.7139C38.4119 41.3129 37.7361 41.6556 36.9963 41.6556C36.2564 41.6556 35.5775 41.3129 35.1419 40.7139L32.5124 37.114C33.7999 36.9731 34.9561 36.3069 35.7376 35.2371L40.3784 28.8444L40.3848 28.8476L41.1471 27.7906L42.0343 26.5672L42.0279 26.564L42.5307 25.8626C44.2186 23.5534 44.2186 20.4466 42.5307 18.1374L33.4124 5.65614L35.1451 3.28607C35.5839 2.68715 36.2596 2.34445 36.9995 2.34445C37.7393 2.34445 38.4151 2.68715 38.8539 3.28607L50.7139 19.521C51.7932 21.0039 51.7932 22.9961 50.7107 24.479Z" fill="url(#paint0_linear_30:5272)"/>
<path opacity="0.4" d="M21.8826 37.1427C21.7032 37.1427 21.5239 37.1331 21.3509 37.1139L18.8047 40.6242L20.7264 41.979L25.3832 35.5862C24.4993 36.579 23.2309 37.1427 21.8826 37.1427Z" fill="url(#paint1_linear_30:5272)"/>
<path opacity="0.4" d="M31.9741 37.1427C32.1534 37.1427 32.3328 37.1331 32.5057 37.1139L35.0519 40.6241L33.1303 41.9789L28.499 35.5925C29.3798 36.5854 30.6257 37.1427 31.9741 37.1427Z" fill="url(#paint2_linear_30:5272)"/>
<path opacity="0.4" d="M25.4664 31.4546L26.9461 33.4756L24.6945 36.499L23.2148 34.5357L25.4664 31.4546Z" fill="url(#paint3_linear_30:5272)"/>
<path opacity="0.6" d="M20.4474 5.63379L21.9015 7.63554L16.6297 14.8771L14.7881 13.4198L20.4474 5.63379Z" fill="url(#paint4_linear_30:5272)"/>
<path opacity="0.6" d="M25.4859 12.5261L26.9272 14.5279L23.5675 19.1751L21.7227 17.7179L25.4859 12.5261Z" fill="url(#paint5_linear_30:5272)"/>
<path opacity="0.6" d="M30.5076 5.65283L31.9553 7.64497L28.3906 12.5228L26.9365 10.5339L30.5076 5.65283Z" fill="url(#paint6_linear_30:5272)"/>
<path d="M66.0068 24.0601H68.774C68.8287 24.5247 69.0405 24.9483 69.4095 25.3309C69.7921 25.6999 70.2909 25.9937 70.9058 26.2123C71.5208 26.4173 72.2109 26.5198 72.9761 26.5198C73.673 26.5198 74.247 26.4447 74.6979 26.2943C75.1489 26.144 75.4837 25.9322 75.7023 25.6589C75.921 25.3856 76.0303 25.0576 76.0303 24.675C76.0303 24.306 75.8936 24.0259 75.6203 23.8346C75.347 23.6296 74.9166 23.4656 74.329 23.3426C73.7414 23.206 72.9693 23.0693 72.0127 22.9327C71.2611 22.8234 70.5505 22.673 69.8809 22.4817C69.2113 22.2768 68.6169 22.0171 68.0976 21.7028C67.592 21.3885 67.1889 21.0059 66.8882 20.5549C66.6013 20.0903 66.4578 19.5437 66.4578 18.9151C66.4578 18.1362 66.6764 17.4529 67.1137 16.8653C67.5647 16.2777 68.2274 15.8199 69.102 15.4919C69.9766 15.164 71.0493 15 72.3202 15C74.2333 15 75.7023 15.41 76.7272 16.2299C77.7658 17.0361 78.2714 18.1498 78.2441 19.571H75.5793C75.5247 18.7648 75.1831 18.184 74.5545 17.8287C73.9395 17.4734 73.1606 17.2958 72.2177 17.2958C71.3431 17.2958 70.6189 17.4256 70.0449 17.6852C69.4846 17.9449 69.2045 18.389 69.2045 19.0176C69.2045 19.2636 69.2728 19.4822 69.4095 19.6735C69.5461 19.8512 69.7784 20.0083 70.1064 20.145C70.4344 20.2816 70.8785 20.4114 71.4388 20.5344C71.999 20.6574 72.696 20.7804 73.5296 20.9034C74.3085 21.0127 75.0122 21.163 75.6408 21.3543C76.2831 21.532 76.8297 21.7711 77.2807 22.0718C77.7453 22.3587 78.1006 22.7277 78.3466 23.1787C78.5925 23.6296 78.7155 24.1831 78.7155 24.839C78.7155 25.6452 78.5037 26.349 78.0801 26.9503C77.6701 27.5379 77.0279 27.9957 76.1533 28.3236C75.2924 28.6516 74.1718 28.8156 72.7916 28.8156C71.8077 28.8156 70.94 28.7131 70.1884 28.5081C69.4368 28.2895 68.7877 28.0025 68.2411 27.6472C67.6945 27.2919 67.2504 26.9024 66.9087 26.4788C66.5671 26.0552 66.3211 25.6316 66.1708 25.2079C66.0342 24.7843 65.9795 24.4017 66.0068 24.0601Z" fill="#F7653B"/>
<path d="M85.0768 22.9942V26.2533H95.3052V28.5286H82.3505V15.2665H95.2847V17.5417H85.0768V20.8419H93.4399V22.9942H85.0768Z" fill="#F7653B"/>
<path d="M112.781 25.8229L111.92 26.1713V15.2665H114.646V28.5286H111.92L101.199 18.0542L102.06 17.7057V28.5286H99.3342V15.2665H102.06L112.781 25.8229Z" fill="#F7653B"/>
<path d="M126.624 15.2665C128.114 15.2665 129.357 15.4441 130.355 15.7994C131.353 16.1547 132.145 16.6398 132.733 17.2548C133.334 17.856 133.758 18.553 134.004 19.3456C134.263 20.1381 134.393 20.9717 134.393 21.8463C134.393 22.7209 134.25 23.5613 133.963 24.3675C133.689 25.1738 133.245 25.8912 132.63 26.5198C132.029 27.1348 131.23 27.6267 130.232 27.9957C129.248 28.351 128.046 28.5286 126.624 28.5286H119.04V15.2665H126.624ZM121.766 26.1918H126.563C127.547 26.1918 128.36 26.0757 129.002 25.8434C129.658 25.5974 130.177 25.2694 130.56 24.8595C130.943 24.4495 131.216 23.9849 131.38 23.4656C131.544 22.9463 131.626 22.4066 131.626 21.8463C131.626 21.286 131.544 20.7531 131.38 20.2475C131.216 19.7418 130.943 19.2909 130.56 18.8946C130.177 18.4983 129.658 18.184 129.002 17.9517C128.36 17.7194 127.547 17.6032 126.563 17.6032H121.766V26.1918Z" fill="#F7653B"/>
<path d="M141.012 22.9942V26.2533H151.24V28.5286H138.286V15.2665H151.22V17.5417H141.012V20.8419H149.375V22.9942H141.012Z" fill="#F7653B"/>
<path d="M155.269 28.5286V15.2665H164.268C165.293 15.2665 166.181 15.41 166.933 15.6969C167.698 15.9702 168.292 16.4075 168.716 17.0088C169.14 17.5964 169.351 18.3548 169.351 19.2841C169.351 19.9127 169.242 20.4456 169.023 20.8829C168.805 21.3202 168.497 21.6755 168.101 21.9488C167.718 22.2221 167.274 22.4339 166.769 22.5842C166.263 22.7209 165.723 22.8097 165.149 22.8507L164.862 22.6867C165.819 22.7004 166.605 22.7824 167.22 22.9327C167.835 23.0693 168.292 23.329 168.593 23.7116C168.907 24.0806 169.064 24.634 169.064 25.3719V28.5286H166.338V25.5564C166.338 25.0508 166.249 24.6613 166.072 24.388C165.894 24.1011 165.573 23.9029 165.108 23.7936C164.657 23.6843 164.001 23.6296 163.141 23.6296H157.996V28.5286H155.269ZM157.996 21.4978H164.268C165.033 21.4978 165.614 21.3133 166.01 20.9444C166.42 20.5754 166.625 20.0766 166.625 19.448C166.625 18.8468 166.42 18.389 166.01 18.0747C165.614 17.7604 165.033 17.6032 164.268 17.6032H157.996V21.4978Z" fill="#F7653B"/>
<defs>
<linearGradient id="paint0_linear_30:5272" x1="9.94295" y1="38.9921" x2="43.9272" y2="5.00786" gradientUnits="userSpaceOnUse">
<stop stop-color="#FF8506"/>
<stop offset="0.5805" stop-color="#FD3947"/>
<stop offset="1" stop-color="#FB0078"/>
</linearGradient>
<linearGradient id="paint1_linear_30:5272" x1="23.9053" y1="35.5376" x2="19.9354" y2="41.1558" gradientUnits="userSpaceOnUse">
<stop stop-color="#78005B"/>
<stop offset="0.3483" stop-color="#7A025A" stop-opacity="0.6517"/>
<stop offset="0.51" stop-color="#820955" stop-opacity="0.49"/>
<stop offset="0.6332" stop-color="#8E154E" stop-opacity="0.3668"/>
<stop offset="0.7369" stop-color="#A12643" stop-opacity="0.2631"/>
<stop offset="0.8283" stop-color="#B83C36" stop-opacity="0.1717"/>
<stop offset="0.9111" stop-color="#D65725" stop-opacity="0.0889"/>
<stop offset="0.9857" stop-color="#F87711" stop-opacity="0.0143"/>
<stop offset="1" stop-color="#FF7E0D" stop-opacity="0"/>
</linearGradient>
<linearGradient id="paint2_linear_30:5272" x1="33.6046" y1="40.7376" x2="29.8683" y2="35.3633" gradientUnits="userSpaceOnUse">
<stop stop-color="#FF7E0D" stop-opacity="0"/>
<stop offset="0.00928743" stop-color="#F97811" stop-opacity="0.0127"/>
<stop offset="0.0651" stop-color="#D65825" stop-opacity="0.0888"/>
<stop offset="0.1269" stop-color="#B93D36" stop-opacity="0.1729"/>
<stop offset="0.1949" stop-color="#A12643" stop-opacity="0.2657"/>
<stop offset="0.272" stop-color="#8F154E" stop-opacity="0.3707"/>
<stop offset="0.3632" stop-color="#820955" stop-opacity="0.495"/>
<stop offset="0.4822" stop-color="#7A025A" stop-opacity="0.6573"/>
<stop offset="0.7336" stop-color="#78005B"/>
</linearGradient>
<linearGradient id="paint3_linear_30:5272" x1="24.035" y1="35.5089" x2="27.0564" y2="31.1632" gradientUnits="userSpaceOnUse">
<stop stop-color="#FF7E0D" stop-opacity="0"/>
<stop offset="0.0133" stop-color="#F97910" stop-opacity="0.0192"/>
<stop offset="0.1144" stop-color="#D25427" stop-opacity="0.1659"/>
<stop offset="0.219" stop-color="#B1363A" stop-opacity="0.3175"/>
<stop offset="0.3263" stop-color="#981E48" stop-opacity="0.4731"/>
<stop offset="0.4375" stop-color="#860D53" stop-opacity="0.6344"/>
<stop offset="0.5551" stop-color="#7B0359" stop-opacity="0.8048"/>
<stop offset="0.6897" stop-color="#78005B"/>
</linearGradient>
<linearGradient id="paint4_linear_30:5272" x1="15.0798" y1="13.7128" x2="21.803" y2="6.98957" gradientUnits="userSpaceOnUse">
<stop stop-color="#FF4630" stop-opacity="0"/>
<stop offset="0.5722" stop-color="#B31F48" stop-opacity="0.5722"/>
<stop offset="1" stop-color="#78005B"/>
</linearGradient>
<linearGradient id="paint5_linear_30:5272" x1="22.1911" y1="18.1851" x2="26.6694" y2="13.7068" gradientUnits="userSpaceOnUse">
<stop stop-color="#FF4630" stop-opacity="0"/>
<stop offset="0.5722" stop-color="#B31F48" stop-opacity="0.5722"/>
<stop offset="1" stop-color="#78005B"/>
</linearGradient>
<linearGradient id="paint6_linear_30:5272" x1="27.2024" y1="11.3346" x2="31.6955" y2="6.84148" gradientUnits="userSpaceOnUse">
<stop stop-color="#FF4630" stop-opacity="0"/>
<stop offset="0.5722" stop-color="#B31F48" stop-opacity="0.5722"/>
<stop offset="1" stop-color="#78005B"/>
</linearGradient>
</defs>
</svg>
